<?xml version="1.0" encoding="UTF-8"?>
<!DOCTYPE svg PUBLIC "-//W3C//DTD SVG 1.1//EN" "http://www.w3.org/Graphics/SVG/1.1/DTD/svg11.dtd">
<svg version="1.1" xmlns="http://www.w3.org/2000/svg" xmlns:xlink="http://www.w3.org/1999/xlink" x="0" y="0" width="2815.183" height="479.084" viewBox="0, 0, 2815.183, 479.084">
  <g id="Layer_1">
    <path d="M500.51,323.893 C466.898,408.936 383.955,469.084 286.953,469.084 C200.96,469.084 126.027,421.787 86.706,351.788 L36,377.307 L77.971,334.594 L169.848,256.152 L211.886,289.581 L281.46,204.671 L471.898,353.538 L380.53,256.502 L415.1,244.292 C415.109,244.292 455.788,282.355 500.51,323.893" fill="#5CAF2B"/>
    <path d="M286.953,10 C413.733,10 516.511,112.77 516.511,239.542 C516.511,252.393 515.445,264.987 513.419,277.255 L540.047,333.952 L508.177,300.991 L420.492,196.854 L375.204,248.61 L274.426,140.789 L195.726,236.75 L161.222,200.096 L69.095,311.992 C61.519,289.223 57.411,264.862 57.411,239.542 C57.411,112.77 160.18,10 286.953,10" fill="#008EFF"/>
    <path d="M816.236,204.158 L781.252,204.158 L775.182,172.209 C771.135,169.653 765.224,167.417 757.45,165.5 C749.676,163.583 741.422,162.625 732.69,162.625 C719.91,162.625 710.032,165.314 703.057,170.692 C696.081,176.07 692.594,183.019 692.594,191.538 C692.594,199.419 696.241,205.889 703.536,210.948 C710.831,216.006 723.424,221.358 741.316,227.002 C766.982,234.137 786.444,243.562 799.703,255.277 C812.962,266.992 819.591,282.38 819.591,301.443 C819.591,321.358 811.71,337.066 795.949,348.568 C780.187,360.07 759.42,365.821 733.648,365.821 C715.224,365.821 698.584,362.892 683.728,357.035 C668.871,351.177 656.491,343.084 646.587,332.753 L646.587,284.191 L682.689,284.191 L687.641,317.258 C692.327,321.092 698.69,324.26 706.731,326.763 C714.771,329.266 723.744,330.517 733.648,330.517 C746.428,330.517 756.146,327.908 762.802,322.689 C769.458,317.471 772.786,310.496 772.786,301.763 C772.786,292.817 769.617,285.629 763.281,280.197 C756.944,274.766 745.842,269.654 729.974,264.862 C702.391,256.874 681.518,247.396 667.354,236.427 C653.19,225.458 646.108,210.442 646.108,191.379 C646.108,172.529 654.095,157.113 670.069,145.133 C686.044,133.152 706.119,127.001 730.293,126.682 C748.185,126.682 764.479,129.398 779.175,134.829 C793.872,140.26 806.226,147.502 816.236,156.554 z" fill="#0E0C0C"/>
    <path d="M920.231,330.038 C928.537,330.038 935.193,327.615 940.199,322.769 C945.204,317.924 947.707,311.454 947.707,303.36 L989.88,303.36 L990.359,304.319 C990.785,321.784 984.235,336.401 970.71,348.169 C957.185,359.937 940.359,365.821 920.231,365.821 C894.458,365.821 874.597,357.674 860.646,341.38 C846.695,325.086 839.719,304.159 839.719,278.6 L839.719,273.807 C839.719,248.355 846.881,227.428 861.205,211.028 C875.529,194.627 895.949,186.427 922.467,186.427 C936.418,186.427 948.932,188.503 960.007,192.657 C971.083,196.81 980.295,202.668 987.643,210.229 L988.282,256.395 L950.422,256.395 L942.755,229.398 C940.412,227.375 937.536,225.697 934.128,224.366 C930.721,223.035 926.833,222.369 922.467,222.369 C909.261,222.369 899.943,227.162 894.512,236.747 C889.08,246.331 886.365,258.685 886.365,273.807 L886.365,278.6 C886.365,294.042 888.867,306.475 893.873,315.9 C898.878,325.325 907.664,330.038 920.231,330.038 z" fill="#0E0C0C"/>
    <path d="M1121.51,362.466 C1120.232,359.591 1119.114,356.635 1118.155,353.6 C1117.197,350.565 1116.451,347.503 1115.919,344.415 C1110.381,350.805 1103.645,355.97 1095.711,359.91 C1087.777,363.851 1078.698,365.821 1068.474,365.821 C1051.541,365.821 1038.096,361.215 1028.139,352.003 C1018.181,342.791 1013.202,330.251 1013.202,314.383 C1013.202,298.195 1019.699,285.682 1032.691,276.842 C1045.684,268.003 1064.747,263.584 1089.88,263.584 L1113.682,263.584 L1113.682,246.651 C1113.682,238.344 1111.286,231.901 1106.494,227.322 C1101.701,222.742 1094.619,220.452 1085.248,220.452 C1079.923,220.452 1075.184,221.065 1071.03,222.29 C1066.877,223.514 1063.522,224.979 1060.966,226.683 L1057.931,245.213 L1022.787,245.213 L1022.947,206.874 C1031.467,201.123 1041.238,196.278 1052.26,192.337 C1063.283,188.397 1075.29,186.427 1088.283,186.427 C1109.689,186.427 1127.074,191.672 1140.44,202.162 C1153.805,212.652 1160.488,227.588 1160.488,246.97 L1160.488,318.376 C1160.488,321.039 1160.514,323.541 1160.567,325.884 C1160.621,328.227 1160.807,330.464 1161.127,332.594 L1175.344,334.511 L1175.344,362.466 z M1081.094,331.316 C1088.123,331.316 1094.513,329.798 1100.264,326.763 C1106.014,323.728 1110.487,319.921 1113.682,315.341 L1113.682,288.983 L1089.88,288.983 C1079.976,288.983 1072.468,291.299 1067.356,295.932 C1062.244,300.565 1059.688,306.129 1059.688,312.626 C1059.688,318.483 1061.579,323.062 1065.359,326.364 C1069.14,329.665 1074.385,331.316 1081.094,331.316 z" fill="#0E0C0C"/>
    <path d="M1186.207,141.378 L1186.207,113.263 L1257.773,113.263 L1257.773,329.718 L1280.297,334.511 L1280.297,362.466 L1188.603,362.466 L1188.603,334.511 L1211.127,329.718 L1211.127,146.171 z" fill="#0E0C0C"/>
    <path d="M1378.221,365.821 C1353.3,365.821 1333.385,357.833 1318.476,341.859 C1303.566,325.884 1296.111,305.597 1296.111,280.996 L1296.111,274.606 C1296.111,248.94 1303.167,227.801 1317.278,211.187 C1331.389,194.574 1350.318,186.32 1374.067,186.427 C1397.39,186.427 1415.495,193.455 1428.381,207.513 C1441.267,221.571 1447.71,240.58 1447.71,264.542 L1447.71,289.942 L1344.514,289.942 L1344.195,290.9 C1345.047,302.295 1348.854,311.667 1355.617,319.015 C1362.379,326.364 1371.565,330.038 1383.173,330.038 C1393.503,330.038 1402.076,328.999 1408.892,326.923 C1415.708,324.846 1423.162,321.571 1431.256,317.098 L1443.876,345.853 C1436.741,351.497 1427.502,356.236 1416.16,360.07 C1404.818,363.904 1392.172,365.821 1378.221,365.821 z M1374.067,222.369 C1365.441,222.369 1358.625,225.671 1353.62,232.274 C1348.614,238.876 1345.526,247.556 1344.355,258.312 L1344.834,259.111 L1402.023,259.111 L1402.023,254.957 C1402.023,245.053 1399.706,237.146 1395.074,231.235 C1390.441,225.325 1383.439,222.369 1374.067,222.369 z" fill="#0E0C0C"/>
    <path d="M1679.819,198.567 L1656.017,198.567 L1650.107,165.34 C1645.314,161.293 1638.925,157.939 1630.937,155.276 C1622.95,152.614 1613.685,151.283 1603.142,151.283 C1586.422,151.283 1573.589,154.824 1564.643,161.906 C1555.697,168.988 1551.224,178.226 1551.224,189.622 C1551.224,199.739 1555.777,208.179 1564.883,214.941 C1573.988,221.704 1588.711,227.641 1609.052,232.753 C1633.546,238.823 1652.157,247.769 1664.883,259.59 C1677.61,271.411 1683.973,286.055 1683.973,303.52 C1683.973,322.263 1676.332,337.333 1661.049,348.728 C1645.767,360.123 1625.772,365.821 1601.065,365.821 C1583.173,365.821 1567.279,362.892 1553.381,357.035 C1539.483,351.177 1528.168,343.51 1519.435,334.031 L1519.435,290.74 L1543.077,290.74 L1549.148,324.127 C1555.218,329.133 1562.46,333.233 1570.873,336.427 C1579.286,339.622 1589.35,341.22 1601.065,341.22 C1616.933,341.22 1629.473,337.865 1638.685,331.156 C1647.897,324.447 1652.503,315.341 1652.503,303.84 C1652.503,293.19 1648.509,284.271 1640.522,277.082 C1632.535,269.894 1618.424,263.85 1598.19,258.951 C1573.589,253.094 1554.366,244.467 1540.521,233.072 C1526.677,221.677 1519.755,207.353 1519.755,190.101 C1519.755,171.89 1527.476,156.741 1542.918,144.653 C1558.36,132.566 1578.434,126.522 1603.142,126.522 C1619.436,126.522 1634.265,129.318 1647.631,134.909 C1660.996,140.5 1671.726,147.289 1679.819,155.276 z" fill="#0E0C0C"/>
    <path d="M1837.169,336.907 C1831.737,346.172 1824.735,353.307 1816.162,358.313 C1807.589,363.318 1797.712,365.821 1786.529,365.821 C1767.786,365.821 1753.143,359.804 1742.599,347.77 C1732.056,335.735 1726.785,316.992 1726.785,291.539 L1726.785,214.382 L1706.976,209.909 L1706.976,189.622 L1726.785,189.622 L1758.254,189.622 L1758.254,291.859 C1758.254,310.283 1760.97,322.956 1766.401,329.878 C1771.833,336.8 1780.299,340.261 1791.801,340.261 C1802.983,340.261 1812.222,337.998 1819.517,333.472 C1826.812,328.946 1832.323,322.53 1836.05,314.223 L1836.05,214.382 L1812.887,209.909 L1812.887,189.622 L1836.05,189.622 L1867.52,189.622 L1867.52,337.865 L1887.329,342.338 L1887.329,362.466 L1839.245,362.466 z" fill="#0E0C0C"/>
    <path d="M1906.019,342.338 L1932.057,337.865 L1932.057,214.382 L1906.019,209.909 L1906.019,189.622 L1960.332,189.622 L1962.409,212.146 C1967.947,203.945 1975.082,197.609 1983.815,193.136 C1992.548,188.663 2002.665,186.427 2014.166,186.427 C2025.668,186.427 2035.546,189.089 2043.799,194.414 C2052.053,199.739 2058.256,207.726 2062.41,218.376 C2067.841,208.578 2075.029,200.804 2083.975,195.053 C2092.921,189.302 2103.358,186.427 2115.285,186.427 C2132.964,186.427 2146.915,192.47 2157.139,204.558 C2167.362,216.645 2172.474,234.829 2172.474,259.111 L2172.474,337.865 L2198.513,342.338 L2198.513,362.466 L2114.806,362.466 L2114.806,342.338 L2140.845,337.865 L2140.845,258.791 C2140.845,241.752 2137.916,229.691 2132.059,222.609 C2126.201,215.527 2117.522,211.986 2106.02,211.986 C2095.051,211.986 2086.238,215.846 2079.582,223.568 C2072.926,231.288 2069.066,241.006 2068.001,252.721 L2068.001,337.865 L2094.039,342.338 L2094.039,362.466 L2010.492,362.466 L2010.492,342.338 L2036.531,337.865 L2036.531,258.791 C2036.531,242.604 2033.522,230.756 2027.505,223.248 C2021.488,215.74 2012.782,211.986 2001.387,211.986 C1991.802,211.986 1983.921,213.956 1977.745,217.896 C1971.568,221.837 1966.829,227.375 1963.527,234.51 L1963.527,337.865 L1989.566,342.338 L1989.566,362.466 L1906.019,362.466 z" fill="#0E0C0C"/>
    <path d="M2215.126,342.338 L2241.165,337.865 L2241.165,214.382 L2215.126,209.909 L2215.126,189.622 L2269.439,189.622 L2271.516,212.146 C2277.054,203.945 2284.189,197.609 2292.922,193.136 C2301.655,188.663 2311.772,186.427 2323.274,186.427 C2334.775,186.427 2344.653,189.089 2352.906,194.414 C2361.16,199.739 2367.363,207.726 2371.517,218.376 C2376.948,208.578 2384.137,200.804 2393.082,195.053 C2402.028,189.302 2412.465,186.427 2424.392,186.427 C2442.071,186.427 2456.022,192.47 2466.246,204.558 C2476.469,216.645 2481.581,234.829 2481.581,259.111 L2481.581,337.865 L2507.62,342.338 L2507.62,362.466 L2423.913,362.466 L2423.913,342.338 L2449.952,337.865 L2449.952,258.791 C2449.952,241.752 2447.023,229.691 2441.166,222.609 C2435.308,215.527 2426.629,211.986 2415.127,211.986 C2404.158,211.986 2395.345,215.846 2388.689,223.568 C2382.033,231.288 2378.173,241.006 2377.108,252.721 L2377.108,337.865 L2403.146,342.338 L2403.146,362.466 L2319.599,362.466 L2319.599,342.338 L2345.638,337.865 L2345.638,258.791 C2345.638,242.604 2342.629,230.756 2336.612,223.248 C2330.595,215.74 2321.889,211.986 2310.494,211.986 C2300.909,211.986 2293.029,213.956 2286.852,217.896 C2280.675,221.837 2275.936,227.375 2272.634,234.51 L2272.634,337.865 L2298.673,342.338 L2298.673,362.466 L2215.126,362.466 z" fill="#0E0C0C"/>
    <path d="M2530.464,342.338 L2556.502,337.865 L2556.502,214.382 L2530.464,209.909 L2530.464,189.622 L2587.972,189.622 L2587.972,337.865 L2614.01,342.338 L2614.01,362.466 L2530.464,362.466 z M2587.972,145.372 L2556.502,145.372 L2556.502,113.263 L2587.972,113.263 z" fill="#0E0C0C"/>
    <path d="M2692.925,147.928 L2692.925,189.622 L2725.672,189.622 L2725.672,212.944 L2692.925,212.944 L2692.925,317.897 C2692.925,325.991 2694.602,331.688 2697.957,334.99 C2701.311,338.291 2705.757,339.942 2711.295,339.942 C2714.064,339.942 2717.179,339.702 2720.64,339.223 C2724.102,338.744 2727.004,338.238 2729.347,337.706 L2733.66,359.271 C2730.678,361.188 2726.311,362.759 2720.561,363.984 C2714.81,365.208 2709.059,365.821 2703.308,365.821 C2690.528,365.821 2680.358,361.96 2672.797,354.239 C2665.235,346.518 2661.455,334.404 2661.455,317.897 L2661.455,212.944 L2634.138,212.944 L2634.138,189.622 L2661.455,189.622 L2661.455,147.928 z" fill="#0E0C0C"/>
  </g>
</svg>
