<?xml version="1.0" encoding="UTF-8"?>
<!DOCTYPE svg PUBLIC "-//W3C//DTD SVG 1.1//EN" "http://www.w3.org/Graphics/SVG/1.1/DTD/svg11.dtd">
<svg version="1.1" xmlns="http://www.w3.org/2000/svg" xmlns:xlink="http://www.w3.org/1999/xlink" x="0" y="0" width="1190.551" height="841.89" viewBox="0, 0, 1190.551, 841.89">
  <g id="Layer_1">
    <path d="M0,0 L1190.551,0 L1190.551,841.89 L0,841.89 L0,0 z" fill="#002531"/>
    <path d="M676.423,318.806 L676.423,222.352 L599.846,270.449 L599.846,220.899 L523.27,270.734 L523.27,188.544 L435.913,188.544 L435.913,371.002 L435.913,429.643 L523.27,429.643 L753,429.643 L753,424.253 L753,371.002 L753,270.945 z M665.642,241.855 L665.642,325.544 L599.846,366.667 L599.846,283.18 z M665.642,418.862 L599.845,418.862 L599.845,381.782 L665.642,381.782 z M676.423,381.783 L742.219,381.783 L742.219,418.863 L676.423,418.863 z M523.27,331.276 L589.065,289.951 L589.065,371.002 L523.27,371.002 z M512.49,371.002 L460.019,371.002 L512.49,338.047 z M575.661,381.783 L523.27,414.527 L523.27,381.783 z M589.065,386.119 L589.065,418.862 L536.675,418.862 z M613.252,371.002 L665.642,338.259 L665.642,371.002 z M589.065,240.777 L589.065,277.22 L523.27,318.545 L523.27,283.594 z M512.49,199.324 L512.49,325.316 L446.693,366.642 L446.693,199.324 z M446.693,381.783 L512.49,381.783 L512.49,418.863 L446.693,418.863 z M676.423,371.002 L676.423,331.521 L742.219,290.399 L742.219,371.002 z" fill="#00A189"/>
    <path d="M435.917,484.906 L435.917,492.486 L443.419,492.486 L443.419,539.626 L451.785,539.626 L451.785,492.486 L459.291,492.486 L459.291,484.906 z" fill="#FFFFFF"/>
    <path d="M483.575,484.906 L483.575,507.966 L475.518,507.966 L475.518,484.906 L467.153,484.906 L467.153,539.626 L475.518,539.626 L475.518,515.55 L483.575,515.55 L483.575,539.626 L491.934,539.626 L491.934,484.906 z" fill="#FFFFFF"/>
    <path d="M499.757,484.906 L499.757,539.626 L518.513,539.626 L518.513,532.042 L508.116,532.042 L508.116,515.55 L512.756,515.55 L512.756,507.966 L508.116,507.966 L508.116,492.486 L518.357,492.486 L518.357,484.906 z" fill="#FFFFFF"/>
    <path d="M568.162,535.12 L568.162,547.487 C568.162,556.923 563.498,561.581 554.062,561.581 L548.967,561.581 C539.531,561.581 534.972,556.923 534.972,547.592 L534.972,531.541 L546.254,531.541 L546.254,547.156 C546.254,550.086 547.663,551.496 550.701,551.496 L552.216,551.496 C555.252,551.496 556.662,550.086 556.662,547.156 L556.662,536.748 C556.662,533.605 555.584,532.188 553.415,530.567 L541.701,521.999 C536.495,518.306 534.972,514.735 534.972,508.872 L534.972,498.464 C534.972,489.028 539.636,484.364 549.073,484.364 L553.956,484.364 C563.279,484.364 567.943,489.028 567.943,498.357 L567.943,512.127 L556.556,512.127 L556.556,498.789 C556.556,495.863 555.146,494.453 552.216,494.453 L550.807,494.453 C547.88,494.453 546.473,495.863 546.473,498.789 L546.473,507.252 C546.473,510.393 547.558,511.908 549.722,513.431 L561.439,521.999 C566.534,525.684 568.162,528.941 568.162,535.12" fill="#FFFFFF"/>
    <path d="M619.005,529.807 L619.005,547.487 C619.005,556.923 614.341,561.579 604.904,561.579 L599.155,561.579 C589.727,561.579 585.063,556.923 585.063,547.487 L585.063,498.463 C585.063,489.028 589.727,484.362 599.155,484.362 L604.799,484.362 C614.235,484.362 618.786,488.921 618.786,498.357 L618.786,513.861 L607.399,513.861 L607.399,499.006 C607.399,495.968 605.989,494.559 603.065,494.559 L601.114,494.559 C598.076,494.559 596.667,495.968 596.667,499.006 L596.667,546.943 C596.667,549.981 598.076,551.391 601.114,551.391 L603.278,551.391 C606.208,551.391 607.618,549.981 607.618,546.943 L607.618,529.807 z" fill="#FFFFFF"/>
    <path d="M651.836,500.741 L656.502,538.701 L647.066,538.701 z M644.466,484.907 L633.62,560.933 L644.353,560.933 L645.762,549.003 L657.806,549.003 L659.321,560.933 L670.82,560.933 L659.863,484.907 z" fill="#FFFFFF"/>
    <path d="M686.415,485.017 L686.415,560.933 L710.82,560.933 L710.82,550.411 L698.021,550.411 L698.021,485.017 z" fill="#FFFFFF"/>
    <path d="M726.964,485.017 L726.964,560.933 L752.987,560.933 L752.987,550.411 L738.562,550.411 L738.562,527.532 L747.002,527.532 L747.002,517.01 L738.562,517.01 L738.562,495.53 L752.768,495.53 L752.768,485.017 z" fill="#FFFFFF"/>
    <path d="M435.917,560.933 L518.513,560.933 L518.513,552.959 L435.917,552.959 z" fill="#FFFFFF"/>
    <path d="M435.917,576.063 L435.917,651.357 L447.422,651.357 L447.422,618.654 L460.441,618.654 L460.441,608.219 L447.422,608.219 L447.422,586.49 L460.98,586.49 L460.98,576.063 z" fill="#FFFFFF"/>
    <path d="M490.858,591.655 L495.484,629.305 L486.125,629.305 z M483.548,575.952 L472.792,651.356 L483.437,651.356 L484.835,639.523 L496.777,639.523 L498.281,651.356 L509.686,651.356 L498.819,575.952 z" fill="#FFFFFF"/>
    <path d="M558.079,620.485 L558.079,638.02 C558.079,647.379 553.453,652 544.093,652 L538.397,652 C529.04,652 524.413,647.379 524.413,638.02 L524.413,589.398 C524.413,580.04 529.04,575.414 538.397,575.414 L543.988,575.414 C553.348,575.414 557.863,579.935 557.863,589.293 L557.863,604.669 L546.569,604.669 L546.569,589.937 C546.569,586.924 545.17,585.526 542.269,585.526 L540.334,585.526 C537.322,585.526 535.924,586.924 535.924,589.937 L535.924,637.483 C535.924,640.495 537.322,641.892 540.334,641.892 L542.479,641.892 C545.386,641.892 546.785,640.495 546.785,637.483 L546.785,620.485 z" fill="#FFFFFF"/>
    <path d="M573.138,576.563 L573.138,586.99 L583.462,586.99 L583.462,651.857 L594.971,651.857 L594.971,586.99 L605.303,586.99 L605.303,576.563 z" fill="#FFFFFF"/>
    <path d="M638.645,585.527 L636.282,585.527 C633.27,585.527 631.874,586.925 631.874,589.937 L631.874,637.482 C631.874,640.494 633.27,641.892 636.282,641.892 L638.645,641.892 C641.552,641.892 642.95,640.494 642.95,637.482 L642.95,589.937 C642.95,586.925 641.552,585.527 638.645,585.527 M640.477,651.999 L634.34,651.999 C624.989,651.999 620.361,647.378 620.361,638.021 L620.361,589.399 C620.361,580.039 624.989,575.413 634.34,575.413 L640.477,575.413 C649.834,575.413 654.461,580.039 654.461,589.399 L654.461,638.021 C654.461,647.378 649.834,651.999 640.477,651.999" fill="#FFFFFF"/>
    <path d="M688.375,586.281 L682.778,586.281 L682.778,611.128 L687.942,611.128 C691.172,611.128 692.673,609.617 692.673,606.501 L692.673,590.579 C692.673,587.679 691.276,586.281 688.375,586.281 M704.29,625.755 L704.29,651.357 L692.785,651.357 L692.785,625.971 C692.785,622.638 691.276,621.129 687.942,621.129 L682.778,621.129 L682.778,651.357 L671.274,651.357 L671.274,576.064 L690.199,576.064 C699.559,576.064 704.185,580.683 704.185,590.042 L704.185,604.244 C704.185,610.91 701.815,614.14 697.622,615.859 C702.355,617.152 704.29,620.052 704.29,625.755" fill="#FFFFFF"/>
    <path d="M741.908,576.063 L735.131,607.794 L728.574,576.063 L716.742,576.063 L729.107,625.538 L729.107,651.357 L740.617,651.357 L740.617,625.001 L752.987,576.063 z" fill="#FFFFFF"/>
  </g>
</svg>
