<?xml version="1.0" encoding="UTF-8" standalone="no"?>
<!DOCTYPE svg PUBLIC "-//W3C//DTD SVG 1.1//EN"
"http://www.w3.org/Graphics/SVG/1.1/DTD/svg11.dtd">


<!-- Page 1 -->
<svg x="0" y="0" width="1100" height="825" viewBox="0 0 1100 825" version="1.1" xmlns="http://www.w3.org/2000/svg" xmlns:xlink="http://www.w3.org/1999/xlink"
style="display: block;margin-left: auto;margin-right: auto;">
<defs>
<clipPath id="c0_1"><path d="M0,825L0,0L1100,0l0,825Z" /></clipPath>
<clipPath id="c1_1"><path d="M64.3,491.1l0,-282.4l981.2,0l0,282.4Z" /></clipPath>

<style type="text/css"><![CDATA[

.g1_1{
fill: #FFFFFF;
}
.g2_1{
fill: #E9E9EF;
}
.g3_1{
fill: #BECAD1;
}
.g4_1{
fill: #1B181A;
}
.g5_1{
fill: #E63131;
}
.g6_1{
fill: #D61C23;
}
.g7_1{
fill: #670A0B;
}
.g8_1{
fill: #D67B6B;
}
.g9_1{
fill: #D0DADF;
}
.g10_1{
fill: #F8AA92;
}
.g11_1{
fill: #292536;
}
.g12_1{
fill: none;
stroke: #FFFFFF;
stroke-width: 1.2249268;
stroke-linecap: round;
stroke-linejoin: miter;
}
.g13_1{
fill: #231F20;
}
.g14_1{
fill: #7FA4C4;
}
.g15_1{
fill: #D7A29A;
}
.g16_1{
fill: #EC145A;
}
.g17_1{
fill: none;
stroke: #FFFFFF;
stroke-width: 0.40831354;
stroke-linecap: butt;
stroke-linejoin: miter;
}
.g18_1{
fill: #254149;
}
.g19_1{
fill: #F9B4A6;
}
.g20_1{
fill: #E6C7A5;
}
.g21_1{
fill: #1B3139;
}
.g22_1{
fill: #C3161C;
}
.g23_1{
fill: #E01B22;
}
.g24_1{
fill: #9EACB4;
}
.g25_1{
fill: #E5ECEF;
}
.g26_1{
fill: #4285F4;
}
.g27_1{
fill: #B89171;
}
.g28_1{
fill: #523A39;
}
.g29_1{
fill: #2E5164;
}
.g30_1{
fill: #E5C7B8;
}
.g31_1{
fill: #CBE0EB;
}
.g32_1{
fill: #F0532A;
}
.g33_1{
fill: #00936F;
}
.g34_1{
fill: #0078A5;
}
.g35_1{
fill: #7B8C95;
}
.g36_1{
fill: #FFE694;
}
.g37_1{
fill: #511416;
}
.g38_1{
fill: #D77965;
}
.g39_1{
fill: #211F1F;
}
.g40_1{
fill: #665977;
}
.g41_1{
fill: #6D0E0F;
}
.g42_1{
fill: #423C3C;
}
.g43_1{
fill: #68727C;
}
.g44_1{
fill: #DF9A8E;
}
.g45_1{
fill: #D49687;
}
.g46_1{
fill: #253843;
}
.g47_1{
fill: #4E7788;
}
.g48_1{
fill: #E9A49F;
}
.g49_1{
fill: #F8ABA0;
}
.g50_1{
fill: #00AA7F;
}
.g51_1{
fill: #2F647C;
}
.g52_1{
}
.g53_1{
fill: #BB7065;
}
.g54_1{
fill: #C08980;
}

.s1_1{
font-size: 27.50px;
font-family: ArialMT_6;
fill: TRANSPARENT;
}
.s2_1{
font-size: 27.50px;
font-family: Arial-BoldMT_9;
fill: TRANSPARENT;
}
.s3_1{
font-size: 67.28px;
font-family: Arial-BoldMT_9;
fill: TRANSPARENT;
}
.s4_1{
font-size: 27.50px;
font-family: ArialMT_p;
fill: TRANSPARENT;
}
text::-moz-selection {
	color: transparent;
	background: rgba(0, 106, 173, 0.4);
}
text::selection {
	color: transparent;
	background: rgba(0, 106, 173, 0.4);
}

]]></style>

</defs>
<path d="M0,0
L0,825
L1100,825
L1100,0 Z " 
fill="#FFFFFF" stroke="none" />
<g clip-path="url(#c0_1)">
<path fill-rule="evenodd" d="M0,825l1100,0L1100,0L0,0L0,825Z" class="g1_1" />
</g>
<path fill-rule="evenodd" d="M0,702.4l1100,0L1100,0L0,0L0,702.4Z" class="g2_1" />
<g clip-path="url(#c0_1)">
<g fill="#34454E" >
<use xlink:href="#f0_1j" transform="matrix(18,0,0,18,61.2,576)" />
<use xlink:href="#f0_1x" transform="matrix(18,0,0,18,79.6,576)" />
<use xlink:href="#f0_2l" transform="matrix(18,0,0,18,94.8,576)" />
<use xlink:href="#f0_24" transform="matrix(18,0,0,18,116.2,576)" />
<use xlink:href="#f0_25" transform="matrix(18,0,0,18,131.5,576)" />
<use xlink:href="#f0_2g" transform="matrix(18,0,0,18,145.1,576)" />
<use xlink:href="#f0_2b" transform="matrix(18,0,0,18,152.8,576)" />
<use xlink:href="#f0_13" transform="matrix(18,0,0,18,175.8,576)" />
<use xlink:href="#f0_24" transform="matrix(18,0,0,18,195.6,576)" />
<use xlink:href="#f0_1x" transform="matrix(18,0,0,18,210.8,576)" />
<use xlink:href="#f0_2e" transform="matrix(18,0,0,18,226.1,576)" />
<use xlink:href="#f0_28" transform="matrix(18,0,0,18,235.2,576)" />
<use xlink:href="#f0_2b" transform="matrix(18,0,0,18,241.2,576)" />
<use xlink:href="#f0_2g" transform="matrix(18,0,0,18,256.5,576)" />
<use xlink:href="#f0_2g" transform="matrix(18,0,0,18,264.2,576)" />
<use xlink:href="#f0_21" transform="matrix(18,0,0,18,271.8,576)" />
<use xlink:href="#f0_1x" transform="matrix(18,0,0,18,294.9,576)" />
<use xlink:href="#f0_2a" transform="matrix(18,0,0,18,310.2,576)" />
<use xlink:href="#f0_20" transform="matrix(18,0,0,18,325.3,576)" />
<use xlink:href="#f0_1j" transform="matrix(18,0,0,18,348.4,576)" />
<use xlink:href="#f0_1x" transform="matrix(18,0,0,18,366.8,576)" />
<use xlink:href="#f0_2a" transform="matrix(18,0,0,18,382,576)" />
<use xlink:href="#f0_20" transform="matrix(18,0,0,18,397.3,576)" />
<use xlink:href="#f0_2l" transform="matrix(18,0,0,18,412.4,576)" />
<use xlink:href="#f0_2b" transform="matrix(18,0,0,18,433.8,576)" />
<use xlink:href="#f0_2a" transform="matrix(18,0,0,18,449.1,576)" />
<use xlink:href="#f0_2g" transform="matrix(18,0,0,18,472.1,576)" />
<use xlink:href="#f0_24" transform="matrix(18,0,0,18,479.8,576)" />
<use xlink:href="#f0_21" transform="matrix(18,0,0,18,495.1,576)" />
<use xlink:href="#f0_2f" transform="matrix(18,0,0,18,517.9,576)" />
<use xlink:href="#f0_2g" transform="matrix(18,0,0,18,531.7,576)" />
<use xlink:href="#f0_1x" transform="matrix(18,0,0,18,539.4,576)" />
<use xlink:href="#f0_2a" transform="matrix(18,0,0,18,554.7,576)" />
<use xlink:href="#f0_20" transform="matrix(18,0,0,18,569.8,576)" />
<use xlink:href="#f0_g" transform="matrix(18,0,0,18,585.1,576)" />
<use xlink:href="#f0_2c" transform="matrix(18,0,0,18,61.2,609)" />
</g>
</g>
<text 
x="61" 
y="576" 
dx="0,0,-0.1,-0.4,0.4,0,-0.1,0,0.1,0,0,0,-0.1,0,0,-0.1,0,0,0,0,0.2,0,-0.1,0,0.1,0,-0.1,0,-0.1,-0.4,0.4,0,-0.1,0.2,0,0,-0.1,0,0,0.1,0,-0.1,0" 
class="s1_1"
>Say hi to Charlotte and Sandy on the stand,</text>

<g clip-path="url(#c0_1)">
<g fill="#34454E" >
<use xlink:href="#f0_28" transform="matrix(18,0,0,18,76.5,609)" />
<use xlink:href="#f0_1x" transform="matrix(18,0,0,18,82.5,609)" />
<use xlink:href="#f0_2l" transform="matrix(18,0,0,18,97.8,609)" />
<use xlink:href="#f0_1x" transform="matrix(18,0,0,18,119.3,609)" />
<use xlink:href="#f0_23" transform="matrix(18,0,0,18,142.2,609)" />
<use xlink:href="#f0_1x" transform="matrix(18,0,0,18,157.5,609)" />
<use xlink:href="#f0_29" transform="matrix(18,0,0,18,172.7,609)" />
<use xlink:href="#f0_21" transform="matrix(18,0,0,18,195.7,609)" />
<use xlink:href="#f0_2b" transform="matrix(18,0,0,18,218.5,609)" />
<use xlink:href="#f0_22" transform="matrix(18,0,0,18,233.7,609)" />
<use xlink:href="#f1_14" transform="matrix(18,0,0,18,249.2,609)" />
</g>
</g>
<text 
x="61" 
y="609" 
dx="0,0,-0.1,0,-0.4,0.6,0,0,-0.1,0,0,-0.1,0,0,0" 
class="s1_1"
>play a game of </text>

<g clip-path="url(#c0_1)">
<g fill="#34454E" >
<use xlink:href="#f1_21" transform="matrix(18,0,0,18,269,609)" />
<use xlink:href="#f1_2i" transform="matrix(18,0,0,18,284.2,609)" />
<use xlink:href="#f1_1f" transform="matrix(18,0,0,18,298.8,609)" />
<use xlink:href="#f1_2c" transform="matrix(18,0,0,18,320.2,609)" />
<use xlink:href="#f1_21" transform="matrix(18,0,0,18,337.1,609)" />
<use xlink:href="#f1_2e" transform="matrix(18,0,0,18,352.4,609)" />
<use xlink:href="#f1_1x" transform="matrix(18,0,0,18,363,609)" />
<use xlink:href="#f1_2g" transform="matrix(18,0,0,18,378.3,609)" />
<use xlink:href="#f1_25" transform="matrix(18,0,0,18,387.4,609)" />
<use xlink:href="#f1_2b" transform="matrix(18,0,0,18,395.1,609)" />
<use xlink:href="#f1_2a" transform="matrix(18,0,0,18,411.9,609)" />
<use xlink:href="#f0_1y" transform="matrix(18,0,0,18,437.1,609)" />
</g>
</g>
<text 
x="249" 
y="609" 
dx="0,0,-0.1,-0.6,0,0.1,0,-0.1,0,0,0,0" 
class="s2_1"
>DevOperation</text>

<g clip-path="url(#c0_1)">
<g fill="#34454E" >
<use xlink:href="#f0_21" transform="matrix(18,0,0,18,452.4,609)" />
<use xlink:href="#f0_22" transform="matrix(18,0,0,18,467.6,609)" />
<use xlink:href="#f0_2b" transform="matrix(18,0,0,18,475.2,609)" />
<use xlink:href="#f0_2e" transform="matrix(18,0,0,18,490.5,609)" />
<use xlink:href="#f0_21" transform="matrix(18,0,0,18,499.7,609)" />
<use xlink:href="#f0_n" transform="matrix(18,0,0,18,522.8,609)" />
<use xlink:href="#f0_2c" transform="matrix(18,0,0,18,538,609)" />
<use xlink:href="#f0_29" transform="matrix(18,0,0,18,553.2,609)" />
</g>
<g fill="#E00000" >
<use xlink:href="#f1_2j" transform="matrix(18,0,0,18,61.2,642)" />
</g>
</g>
<text 
x="437" 
y="609" 
dx="0,0,-0.1,0,0,0,-0.1,0.2,0,-0.1" 
class="s1_1"
>before 3pm</text>

<g clip-path="url(#c0_1)">
<g fill="#E00000" >
<use xlink:href="#f1_25" transform="matrix(18,0,0,18,83.2,642)" />
<use xlink:href="#f1_2a" transform="matrix(18,0,0,18,90.7,642)" />
<use xlink:href="#f1_1x" transform="matrix(18,0,0,18,114.7,642)" />
<use xlink:href="#f1_1e" transform="matrix(18,0,0,18,137.7,642)" />
<use xlink:href="#f1_25" transform="matrix(18,0,0,18,157.5,642)" />
<use xlink:href="#f1_2a" transform="matrix(18,0,0,18,165.2,642)" />
<use xlink:href="#f1_2g" transform="matrix(18,0,0,18,182,642)" />
<use xlink:href="#f1_21" transform="matrix(18,0,0,18,191.1,642)" />
<use xlink:href="#f1_2a" transform="matrix(18,0,0,18,206.4,642)" />
<use xlink:href="#f1_20" transform="matrix(18,0,0,18,223.2,642)" />
<use xlink:href="#f1_2b" transform="matrix(18,0,0,18,240.1,642)" />
<use xlink:href="#f1_1j" transform="matrix(18,0,0,18,264.3,642)" />
<use xlink:href="#f1_2j" transform="matrix(18,0,0,18,282.6,642)" />
<use xlink:href="#f1_25" transform="matrix(18,0,0,18,304.6,642)" />
<use xlink:href="#f1_2g" transform="matrix(18,0,0,18,312.3,642)" />
<use xlink:href="#f1_1z" transform="matrix(18,0,0,18,321.4,642)" />
<use xlink:href="#f1_24" transform="matrix(18,0,0,18,336.7,642)" />
<use xlink:href="#f1_1y" transform="matrix(18,0,0,18,360.5,642)" />
<use xlink:href="#f1_2h" transform="matrix(18,0,0,18,377.3,642)" />
<use xlink:href="#f1_2a" transform="matrix(18,0,0,18,394.2,642)" />
<use xlink:href="#f1_20" transform="matrix(18,0,0,18,411,642)" />
<use xlink:href="#f1_28" transform="matrix(18,0,0,18,427.9,642)" />
<use xlink:href="#f1_21" transform="matrix(18,0,0,18,435.6,642)" />
<use xlink:href="#f1_5" transform="matrix(18,0,0,18,450.9,642)" />
</g>
</g>
<text 
x="61" 
y="642" 
dx="0,0.6,-0.1,0,-0.4,0,0,0,0,0,0,0,0,0.1,0,-0.2,0,0.6,0,0,0,0,-0.6,0,0.1,0,0.1,0,0" 
class="s2_1"
>win a Nintendo Switch bundle!</text>

<image preserveAspectRatio="none" x="470" y="726" width="139" height="72" xlink:href="1/img/1.png" />
<image preserveAspectRatio="none" x="649" y="742" width="179" height="38" xlink:href="1/img/2.png" />
<image preserveAspectRatio="none" x="855" y="715" width="86" height="86" xlink:href="1/img/3.png" />
<image preserveAspectRatio="none" x="362" y="717" width="77" height="90" xlink:href="1/img/4.png" />
<g clip-path="url(#c0_1)">
<g fill="#34454E" >
<use xlink:href="#f1_1i" transform="matrix(44,0,0,44,60.4,105.9)" />
<use xlink:href="#f1_21" transform="matrix(44,0,0,44,108.9,105.9)" />
<use xlink:href="#f1_1x" transform="matrix(44,0,0,44,146.3,105.9)" />
<use xlink:href="#f1_20" transform="matrix(44,0,0,44,183.8,105.9)" />
<use xlink:href="#f1_2l" transform="matrix(44,0,0,44,224.9,105.9)" />
<use xlink:href="#f1_2g" transform="matrix(44,0,0,44,281,105.9)" />
<use xlink:href="#f1_2b" transform="matrix(44,0,0,44,303.4,105.9)" />
<use xlink:href="#f1_26" transform="matrix(44,0,0,44,363.2,105.9)" />
<use xlink:href="#f1_2b" transform="matrix(44,0,0,44,381.9,105.9)" />
<use xlink:href="#f1_25" transform="matrix(44,0,0,44,422.8,105.9)" />
<use xlink:href="#f1_2a" transform="matrix(44,0,0,44,441.5,105.9)" />
</g>
<g fill="#E00000" >
<use xlink:href="#f1_13" transform="matrix(44,0,0,44,501.3,105.9)" />
<use xlink:href="#f1_28" transform="matrix(44,0,0,44,549.9,105.9)" />
<use xlink:href="#f1_1x" transform="matrix(44,0,0,44,568.6,105.9)" />
<use xlink:href="#f1_2e" transform="matrix(44,0,0,44,606,105.9)" />
<use xlink:href="#f1_1x" transform="matrix(44,0,0,44,632.2,105.9)" />
<use xlink:href="#f1_2a" transform="matrix(44,0,0,44,669.6,105.9)" />
<use xlink:href="#f1_21" transform="matrix(44,0,0,44,710.7,105.9)" />
<use xlink:href="#f1_2g" transform="matrix(44,0,0,44,748.1,105.9)" />
<use xlink:href="#f1_z" transform="matrix(44,0,0,44,770.5,105.9)" />
</g>
</g>
<text 
x="60" 
y="105" 
dx="0,0,0,0,0,0,0,0,0,0,0,-0.2,0,0" 
class="s3_1"
>Ready to join </text>

<text 
x="501" 
y="105" 
class="s3_1"
>Claranet?</text>

<image preserveAspectRatio="none" x="322" y="714" width="22" height="93" xlink:href="1/img/5.png" />
<path d="M838.1,482.2L941,480.5L932.8,476l-80,1.7Z" class="g3_1" />
<path d="M848.7,476.5c0.4,2.4,0.4,2.4,0.4,2.4c0,0,3.7,2.5,5.7,2.5c2.1,-0.5,26.1,-2.9,26.1,-2.9c0.5,-3.3,0.5,-3.3,0.5,-3.3c0,0,-13.5,2.1,-19.6,1.7C856,476.5,850.3,476,850.3,476Z" class="g1_1" />
<path d="M939.3,474.8c0,3.3,0,3.3,0,3.3c0,0,-3.2,2.4,-7.3,2c-4.1,-0.4,-24.9,-2.8,-24.9,-2.8c-0.4,-2.9,-0.4,-2.9,-0.4,-2.9c0,0,17.1,1.6,20.4,1.6c3.3,0,12.2,-1.2,12.2,-1.2Z" class="g1_1" />
<path d="M864.2,467.9l-15.5,8.6l6.9,2l25.8,-2.9l-7,-11.4Z" class="g4_1" />
<path d="M918.5,466.3l20.8,9.3l-6.9,1.3l-25.7,-2.5l1.6,-11.8Z" class="g4_1" />
<path d="M869.5,475.6l2.5,0l-3.3,-4.9l-2.4,0Z" class="g1_1" />
<path d="M865.4,476.5l2.5,0l-3.7,-5.3l-2.4,0.4Z" class="g1_1" />
<path d="M916.9,474.4l-2.5,0l3.3,-5.3l2.5,0Z" class="g1_1" />
<path d="M921.4,474.8l-2.5,0l3.3,-5.3l2.4,0Z" class="g1_1" />
<path d="M761.2,284.8l-14.3,28.1l-2.3,-0.4L740.5,275l2.4,-0.3l4.1,37.5l-2.3,-0.4L759,283.7Z" class="g5_1" />
<path d="M751.1,324.6l-16.3,-4.9l3.6,-10.6L754,314Z" class="g6_1" />
<path d="M746.6,321.4c-6.5,-2.1,-6.5,-2.1,-6.5,-2.1c-1.2,-0.4,-2.1,-2,-1.7,-3.3c0.5,-1.6,1.7,-2.4,2.9,-2c1.2,-1.2,2.9,-1.6,4.1,-1.2c1.2,0.4,2.4,1.2,2.4,2.8c0.5,0,0.5,0,0.5,0c1.6,0.4,2.4,2.1,2,3.7c-0.8,1.6,-2,2.5,-3.7,2.1Zm-5.3,-6.6c-0.8,-0.4,-2,0,-2.4,1.2c-0.5,1.3,0.4,2.5,1.2,2.9c6.5,2,6.5,2,6.5,2c1.2,0.5,2.5,-0.4,2.9,-2c0.4,-1.2,0,-2.4,-1.2,-2.9c-0.5,0,-0.5,0,-0.5,0c-0.4,0,-0.4,0,-0.4,0c0,-0.4,0,-0.4,0,-0.4c0,-1.2,-0.8,-2,-2,-2.4c-1.2,-0.4,-2.9,0,-3.7,1.2c0,0.4,0,0.4,0,0.4c-0.4,0,-0.4,0,-0.4,0Z" class="g1_1" />
<path d="M745,316.5c-0.4,0,-0.4,0,-0.8,0l0,-0.5c0.4,-1.6,0.4,-1.6,0.4,-1.6c0,0,0.4,0,0.4,0c0.4,0,0.4,0.4,0.4,0.4Z" class="g1_1" />
<path d="M745.4,315.2c0,0.4,0,0.4,0,0.4c0.4,0.4,0.4,0.9,0.4,1.7c-0.4,0.4,-1.2,0.8,-2,0.8c-0.4,-0.4,-0.9,-1.2,-0.9,-1.6c0,-0.9,0.9,-1.3,1.3,-1.3c0,-0.4,0,-0.4,0,-0.4c-0.8,0,-1.7,0.4,-1.7,1.2c-0.4,1.3,0.4,2.1,1.3,2.5c1.2,0.4,2,-0.4,2.4,-1.2c0,-0.8,0,-1.7,-0.8,-2.1Z" class="g1_1" />
<path d="M1038.2,480.5L986.7,485L961,484.2l-7.4,-2.4l57.6,-2.5Z" class="g3_1" />
<path d="M958.5,478.1c0,2.4,0,2.4,0,2.4c0,0,4.1,2.5,6.2,2.5c1.6,-0.4,25.7,-2.9,25.7,-2.9c0.4,-3.2,0.4,-3.2,0.4,-3.2c0,0,-13.1,2,-19.2,1.6c-6.1,-0.4,-11.4,-0.8,-11.4,-0.8Z" class="g1_1" />
<path d="M994.5,477.3c0,3.6,0,3.6,0,3.6c0,0,3.2,2.1,7.3,2.1c4.1,-0.4,24.9,-3.3,24.9,-3.3c0.4,-2.8,0.4,-2.8,0.4,-2.8c0,0,-17.1,1.6,-20.4,1.6c-3.3,0,-12.2,-1.2,-12.2,-1.2Z" class="g1_1" />
<path d="M471,256c0,2.5,-2,4.5,-4.5,4.5c-2.8,0,-4.9,-2,-4.9,-4.5c0,-2.8,2.1,-4.9,4.9,-4.9c2.5,0,4.5,2.1,4.5,4.9Z" class="g7_1" />
<path d="M475.9,272c0,2.4,-2,4.5,-4.5,4.5c-2.8,0,-4.9,-2.1,-4.9,-4.5c0,-2.5,2.1,-4.5,4.9,-4.5c2.5,0,4.5,2,4.5,4.5Z" class="g7_1" />
<path d="M470.6,269.5c0,2.9,-2,4.9,-4.9,4.9c-2.4,0,-4.5,-2,-4.5,-4.9c0,-2.4,2.1,-4.5,4.5,-4.5c2.9,0,4.9,2.1,4.9,4.5Z" class="g7_1" />
<path d="M468.2,263c0,2.4,-2.1,4.5,-4.5,4.5c-2.5,0,-4.9,-2.1,-4.9,-4.5c0,-2.9,2.4,-4.9,4.9,-4.9c2.4,0,4.5,2,4.5,4.9Z" class="g7_1" />
<path d="M531.9,482.2l-135.6,2.4l-10.2,-2l78.8,-5.7l63.7,2.4Z" class="g3_1" />
<path d="M471,349.9l-9.4,-4.1L456.3,292l13.1,1.2Z" class="g8_1" />
<path d="M466.1,284.6c2.1,0,10.2,-6.9,10.2,-6.9c18.8,2.8,18.8,2.8,18.8,2.8C481.6,294,481.6,294,481.6,294Z" class="g8_1" />
<path d="M476.3,462.6L463.7,474l2,2.9l15.5,-5.7l4.1,-3.7l0.8,1.6l4.1,-1.6l-3.3,-7.8Z" class="g4_1" />
<path d="M524.9,402.2l9.8,13l2.9,-2l-4.1,-14.3l-3.3,-5.3l1.7,-0.8l-1.3,-3.7l-9.8,2Z" class="g4_1" />
<path d="M461.6,410.7c-1.2,1.7,17.6,52.7,17.6,52.7c0,0,6.9,-1.6,6.5,-2.5c0,-1.2,-14.3,-52.6,-14.3,-52.6Z" class="g8_1" />
<path d="M476.3,411.6c0,-0.5,4.5,1.2,7,0C495.9,405,522.9,392,522.9,392c0,0,3.2,6.5,1.6,6.9c-0.8,0.4,-42.9,29.4,-42.9,29.4Z" class="g8_1" />
<path d="M466.9,414.8l4.1,0l2.5,0.4l31,-9.8L502,388.7l0.9,-46.1l-38,0l-6.1,51l-1.3,12.2l-1.2,4.1Z" class="g4_1" />
<path d="M466.5,306.7l-11.4,-0.9l0,-16.3l1.2,-4.9l10.6,-2Z" class="g9_1" />
<path d="M492.6,278.9c0,0.4,0,0.8,0,1.2c0,5.3,-10.6,34.3,-10.6,34.3c0,0,-10.6,-27.3,-10.6,-32.2c0,-0.4,0,-0.4,0,-0.9c-13.9,2.9,-13.9,2.9,-13.9,2.9c2.1,19.2,2.1,19.2,2.1,19.2c3.2,23.3,3.2,23.3,3.2,23.3c-4.4,32.2,-4.4,32.2,-4.4,32.2c15.5,-1.6,15.5,-1.6,15.5,-1.6c6.5,-24.5,6.5,-24.5,6.5,-24.5c7.4,22.4,7.4,22.4,7.4,22.4c20.8,-2.4,20.8,-2.4,20.8,-2.4c-4.1,-10.6,-4.1,-10.6,-4.1,-10.6c-5.7,-15.1,-5.7,-15.1,-5.7,-15.1c5.7,-14.7,5.7,-14.7,5.7,-14.7c5.7,-32.3,5.7,-32.3,5.7,-32.3Z" class="g9_1" />
<path d="M515.1,351.6l5.7,-3.7l-4.9,-50.6l-9.4,0.4Z" class="g8_1" />
<path d="M493.5,303.8L518,303l-5.7,-21.2l0,-2.1l-16,-0.4Z" class="g9_1" />
<path d="M520,343c2.5,14.3,2.5,14.3,2.5,14.3c0,0,-4.1,6.9,-4.5,7.3c-0.4,0.4,-4.1,0,-4.1,0c-0.8,-2.8,-0.8,-2.8,-0.8,-2.8c0.8,-4.5,0.8,-4.5,0.8,-4.5C513.5,354,513.5,354,513.5,354c3.6,-6.5,3.6,-6.5,3.6,-6.5Z" class="g8_1" />
<path d="M490.2,240.1c18,3.3,6.5,23.7,6.5,23.7c-9.4,9.8,-9.4,9.8,-9.4,9.8C466.5,252,466.5,252,466.5,252c0,0,4.5,-7,7,-9.8c6.1,-5.7,13,-2.9,16.7,-2.1Z" class="g7_1" />
<path d="M481.2,286.2l9.4,-25.3l-15.5,13.5l5.7,3.3l2,2.8Z" class="g10_1" />
<path d="M485.3,271.2l-2.9,-3.3L480,264.2l1.2,-3.7l-2,-7.3l1.6,-6.1l-6.1,-0.4L469,258.9l-2.9,13.5l9,0.8Z" class="g8_1" />
<path d="M473,255.6l-3.2,9.4l-4.9,-1.6l6.5,-9.8Z" class="g8_1" />
<path d="M475.9,262.2l-1.2,-3.7L470.2,256l4.5,30.2l15.5,-0.8l-5.3,-17.9Z" class="g8_1" />
<path d="M475.9,255.6c-0.4,0.9,-1.2,1.3,-1.6,0.9c-0.8,0,-1.3,-0.9,-1.3,-1.3c0.5,-0.8,0.9,-1.2,1.7,-1.2c0.8,0,1.2,0.8,1.2,1.6Z" class="g11_1" />
<path d="M468.6,265.8l7.7,-0.4l-4.1,4.9Z" class="g1_1" />
<path d="M472,280.6l11,35.6l-1.9,0l11.4,-36.8l1.9,0.6L483,316.8l-1.9,-0.1L470,281.2Z" class="g5_1" />
<path d="M488.6,266.7c0,2.4,-2.1,4.5,-4.5,4.5c-2.9,0,-4.9,-2.1,-4.9,-4.5c0,-2.5,2,-4.9,4.9,-4.9c2.4,0,4.5,2.4,4.5,4.9Z" class="g7_1" />
<path d="M491.8,272.4c0,2.8,-2,4.9,-4.5,4.9c-2.8,0,-4.9,-2.1,-4.9,-4.9c0,-2.5,2.1,-4.5,4.9,-4.5c2.5,0,4.5,2,4.5,4.5Z" class="g7_1" />
<path d="M495.1,263c0,2.8,-2.5,4.9,-4.9,4.9c-2.4,0,-4.5,-2.1,-4.5,-4.9c0,-2.5,2.1,-4.5,4.5,-4.5c2.4,0,4.9,2,4.9,4.5Z" class="g7_1" />
<path d="M498.8,270.3c0,2.5,-2.1,4.5,-4.5,4.5c-2.9,0,-4.9,-2,-4.9,-4.5c0,-2.8,2,-4.9,4.9,-4.9c2.4,0,4.5,2.1,4.5,4.9Z" class="g7_1" />
<path d="M504.1,265.4c0,2.5,-2.1,4.5,-4.9,4.5c-2.5,0,-4.5,-2,-4.5,-4.5c0,-2.4,2,-4.5,4.5,-4.5c2.8,0,4.9,2.1,4.9,4.5Z" class="g7_1" />
<path d="M504.9,257.7c0,2.4,-2,4.9,-4.5,4.9c-2.8,0,-4.9,-2.5,-4.9,-4.9c0,-2.5,2.1,-4.5,4.9,-4.5c2.5,0,4.5,2,4.5,4.5Z" class="g7_1" />
<path d="M551.4,472l5,2.8" class="g12_1" />
<path d="M806.6,477.7c0,0,-20.8,4.9,-45.3,4.9c-24.5,0,-23.7,-2.5,-24.9,-4.1c-0.4,-0.4,9,-2,33.5,-2c24.5,0,36.7,1.2,36.7,1.2Z" class="g3_1" />
<path d="M801.7,468.3L781.3,474l0.8,4.1l30.7,0l0,-12.3Z" class="g13_1" />
<path d="M752.8,473.6l-20.5,3.7l-0.8,4.5l29,-0.9l1.6,-7.3Z" class="g13_1" />
<path d="M847.9,421.4c0,0,-3.7,-26.6,-1.2,-40.9c2.4,-14.3,6.9,-28.1,6.9,-28.1c41.2,5.7,41.2,5.7,41.2,5.7c0,0,4.9,1.2,9,13.9c4.1,12.6,6.1,44.5,6.1,44.5c10.7,52.2,10.7,52.2,10.7,52.2c-12.7,-0.8,-12.7,-0.8,-12.7,-0.8C893.6,419.3,893.6,419.3,893.6,419.3C875.2,373.6,875.2,373.6,875.2,373.6c-2,7.3,-2,7.3,-2,7.3C863,410.7,863,410.7,863,410.7c13.9,58.4,13.9,58.4,13.9,58.4c-13.5,2,-13.5,2,-13.5,2Z" class="g14_1" />
<path d="M888.3,285.4l-8.6,-4.9l-20,2.1l12.7,51Z" class="g15_1" />
<path d="M942.2,341.4l-0.8,-5.8L913.2,323.8l-6.9,-22.9l-8.2,10.2l8.2,18.4Z" class="g15_1" />
<path d="M847.1,353.6l-5.3,-2.5l-4.1,-18.7l2.4,-33.1l11.5,0.4L845,332Z" class="g15_1" />
<path d="M897.7,311.6c11,-3.7,11,-3.7,11,-3.7c-6.9,-20.4,-6.9,-20.4,-6.9,-20.4c0,0,-16.8,-5.3,-16.8,-4.9c0,4.9,4.1,19.2,-11.8,19.2c-14.7,0,-9.4,-14.3,-9.4,-19.2c0,-0.4,0,-0.8,0.4,-1.3C851.1,283,851.1,283,851.1,283c-4.4,0.4,-4.4,0.4,-4.4,0.4c-3.7,6.9,-3.7,6.9,-3.7,6.9c-5.7,16.4,-5.7,16.4,-5.7,16.4c10.2,0.4,10.2,0.4,10.2,0.4c8.5,20.8,8.5,20.8,8.5,20.8c-5.7,33.5,-5.7,33.5,-5.7,33.5c47.4,-2.1,47.4,-2.1,47.4,-2.1c-7.4,-30.2,-7.4,-30.2,-7.4,-30.2Z" class="g4_1" />
<path d="M842.6,346.2c-2.5,13.9,-2.5,13.9,-2.5,13.9c0,0,3.7,7,4.1,7.4c0.8,0.4,4.5,0,4.5,0c0.8,-2.9,0.8,-2.9,0.8,-2.9c-0.8,-4.1,-0.8,-4.1,-0.8,-4.1c0,-3.6,0,-3.6,0,-3.6C845,350.3,845,350.3,845,350.3Z" class="g15_1" />
<path d="M937.3,336.9c8.2,-3.3,8.2,-3.3,8.2,-3.3c0,0,8.1,4.1,8.5,4.9c0.5,0.4,0,4.1,0,4.1c-4,0.8,-4,0.8,-4,0.8c-8.6,-1.2,-8.6,-1.2,-8.6,-1.2c-0.4,0,-0.4,0,-0.4,0c-7.4,-4.1,-7.4,-4.1,-7.4,-4.1Z" class="g15_1" />
<path d="M556.4,489.1c0,0,0.4,-0.4,0,-0.4c0,0,-0.5,0.4,0,0.4Z" class="g1_1" />
<path d="M731.9,263.8c-2.4,0,-2.4,0,-2.4,0c-1.3,-0.4,-2.1,-0.4,-2.1,-1.2c0,-0.4,0.8,-0.8,2.1,-0.8c2.8,-0.4,2.8,-0.4,2.8,-0.4Z" class="g16_1" />
<path d="M640.9,480.9l80.8,-1.2l-35.5,7.8Z" class="g3_1" />
<path d="M665.4,368.7L647,478.9" class="g17_1" />
<path d="M706.6,359.3l11.9,118.4" class="g17_1" />
<path d="M687,483.8L684.6,365" class="g17_1" />
<path d="M632.3,248.3c73.1,-8.6,73.1,-8.6,73.1,-8.6c34.7,121.2,34.7,121.2,34.7,121.2c0,0,-90.2,19.6,-89.8,18.4c0,-0.8,-18,-131,-18,-131Z" class="g1_1" />
<path d="M780.9,278.5l14.7,-0.8L787,298.5l8.6,-6.1l15.9,-25.3l-35.9,-8.2Z" class="g1_1" />
<path d="M766.2,338.5l-21.6,51.8l3.7,83.3l15.5,2l-4.5,-79.1l21.6,-38.4l-1.2,52.6l19.2,58.8l16.3,1.2L798.9,414.4l-6.5,-90.2Z" class="g18_1" />
<path d="M793.2,292l4.9,6.1l0.4,7.7l-9.4,2.9L785,303l2,-7Z" class="g19_1" />
<path d="M750.3,266.2l-4.9,-8.1l-7.4,8.6l5.8,0.8l2.8,1.6Z" class="g20_1" />
<path d="M726.6,228.3c0,0,-7.3,6.9,9.4,2c9.4,-2.8,19.6,8.6,19.6,8.6c-6.1,23.3,-6.1,23.3,-6.1,23.3C724.2,241.8,724.2,241.8,724.2,241.8c0,0,-1.7,-1.3,-2.5,-5.3c-1.2,-3.7,0,-4.9,4.9,-8.2Z" class="g21_1" />
<path d="M745,250.3l-4.1,6.2L737.6,254l0.4,-3.7l-3.6,-6.1l0,-6.1l-8.2,2.4l0.4,11.5l2.5,9.4l2.4,0.4l-2,2.8l-0.4,4.9l6.1,-2.8l6.5,8.5l5.3,-2.4l0.8,-4.1Z" class="g19_1" />
<path d="M729.5,247.9l-0.4,11l-4.9,0l2,-10.2Z" class="g19_1" />
<path d="M738.4,251.1l-0.8,-3.6l-3.2,-3.3l0.4,17.6l-3.3,4.4l21.6,0l-7.7,-8.1Z" class="g19_1" />
<path d="M758.5,319.7L737.2,280.5l0.8,-5.3l12.3,-13.4l25.3,-2.9L794.4,325l-28.2,13.5Z" class="g1_1" />
<path d="M731.5,248.7c0,0.8,-0.8,1.2,-1.2,1.2c-0.8,0,-1.2,-0.4,-1.2,-1.2c-0.5,-0.4,0.4,-1.2,0.8,-1.2c0.8,0,1.6,0.4,1.6,1.2Z" class="g11_1" />
<path d="M648.6,478.9c0,1.2,-0.8,2,-2,2c-1.2,0,-2.1,-0.8,-2.1,-2c0,-1.2,0.9,-2,2.1,-2c1.2,0,2,0.8,2,2Z" class="g1_1" />
<path d="M689,483c0,1.2,-1.2,2,-2,2c-1.2,0,-2,-0.8,-2,-2c0,-1.2,0.8,-2.1,2,-2.1c0.8,0,2,0.9,2,2.1Z" class="g1_1" />
<path d="M720.5,478.5c0,1.2,-1.2,2,-2,2c-1.3,0,-2.5,-0.8,-2.5,-2c0,-0.8,1.2,-2,2.5,-2c0.8,0,2,1.2,2,2Z" class="g1_1" />
<path d="M709.5,270.7l-17.2,-5.3l1.2,-4.5l17.2,5.3Z" class="g22_1" />
<path d="M738.9,275.6l-17.6,24.1L701.7,273.6l-2,6.9l21.6,36.4l31,-23.7Z" class="g1_1" />
<path d="M704.2,278.1l-2.9,-5.3l0,-5.7l4.1,2.4Z" class="g19_1" />
<path d="M694.8,278.5l-2.5,-4.1l5.3,-5.3l2.9,-3.7l2.8,-0.4l1.3,14.7l-3.3,2.5Z" class="g19_1" />
<path d="M690.3,262.6l-1.7,-0.4l0,-1.7l2.5,0.9Z" class="g23_1" />
<path d="M690.7,261.4l2.8,-0.5l-1.2,4.5l-2.4,-2.8Z" class="g24_1" />
<path d="M693.9,261.8l0,0.4l16,5.3l0.4,-0.8Z" class="g1_1" />
<path d="M701.7,270.3l1.2,-7.3l-1.2,-1.2l-4.1,7.3Z" class="g19_1" />
<path d="M648,380.1l93.1,-20l0.4,1.6l-93.1,20Z" class="g1_1" />
<path d="M631,248.3l77.5,-9.4l0.2,1.6l-77.5,9.4Z" class="g1_1" />
<path d="M754.8,296c0,2.5,-4.1,4.9,-6.1,5.8c-2.1,-4.1,-2.1,-4.1,-2.1,-4.1c0.4,-0.4,-3.2,2.4,-3.7,2.4c-0.4,-0.8,-2.4,-2.8,-2.4,-4.1c0,-2.8,4.5,-8.5,7.8,-8.5c2.8,0,6.5,5.7,6.5,8.5Z" class="g25_1" />
<path d="M783,278.1c0,0,4,-3.3,2.4,-5.3c-2.4,-3.7,-6.9,-2.5,-6.9,-2.5c0.4,0.4,0.4,0.4,0.4,0.4c2,7.8,2,7.8,2,7.8Z" class="g25_1" />
<path d="M973.6,469.9l-15.1,8.2l7,2l25.7,-2.8l-7.4,-11.5Z" class="g26_1" />
<path d="M1015.3,468.7l-20.4,9.4l6.5,1.6l25.7,-2.8L1025.5,465Z" class="g26_1" />
<path d="M934,252l5.8,-1.7l10.6,27l27.7,-3.7l-9.4,12.6L943,285.8Z" class="g27_1" />
<path d="M937.3,255.6c-6.9,-5.7,-6.9,-5.7,-6.9,-5.7c0,0,-3.3,-8.1,-2.9,-8.5c0.4,-0.9,7.3,-4.9,7.3,-4.9c2.5,4.9,2.5,4.9,2.5,4.9c4.1,5.7,4.1,5.7,4.1,5.7c-0.8,2.8,-0.8,2.8,-0.8,2.8c0.8,11,0.8,11,0.8,11Z" class="g27_1" />
<path d="M979.4,477.7l2.4,-0.4l-3.7,-4.9l-2.4,0Z" class="g1_1" />
<path d="M974.9,478.1l2.4,0L974,472.8l-2.4,0.4Z" class="g1_1" />
<path d="M1016.9,476.9l2.5,0l-3.3,-5.3l-2.4,0Z" class="g1_1" />
<path d="M1012.4,477.3l2.9,0L1012,472l-2.4,0Z" class="g1_1" />
<path d="M989.6,236.5c1.6,7.3,7.7,14.6,12.2,11.4c2.1,-1.2,8.6,-7.8,6.9,-15.1c-1.2,-7.4,-6.9,-12.7,-12.2,-11.9c-4.9,1.3,-8.2,8.2,-6.9,15.6Z" class="g28_1" />
<path d="M1009.2,407.9l13.4,-54.7l-40,-4.1l-26.5,64.1L970,470.7l20.4,1.7L972.8,412.8l27.4,-49.4l0,1.2l-10.6,44.1l19.6,62l18.7,-0.4Z" class="g29_1" />
<path d="M1003.4,266.2l-0.8,-25.3l-13.9,15.6l6.2,3.6l2,3.3Z" class="g27_1" />
<path d="M999.8,253.2l-3.3,-3.3l-2.4,-4.1l1.2,-4l-1.7,-7.4l1.3,-5.7l-9.4,-1.2l-3.3,12.6l-1.2,18l6.1,1.2l5.3,22l11,-2.8l4.1,-0.4Z" class="g27_1" />
<path d="M986.7,236.9l-4.1,11.8l-4.9,-1.6l5.7,-10.6Z" class="g27_1" />
<path d="M995.7,243l0.4,-4.1l-2.5,-4.5l-11.8,23.7l20.8,4.1l-1.6,-9.4Z" class="g27_1" />
<path d="M988.7,238.1c-0.4,0.8,-0.8,1.2,-1.6,1.2c-0.8,0,-1.2,-0.8,-1.2,-1.6c0.4,-0.8,0.8,-1.2,1.6,-1.2c0.8,0.4,1.2,1.2,1.2,1.6Z" class="g28_1" />
<path d="M982.2,273.2l9,-5.7l21.6,1.2l-13,13.1Z" class="g27_1" />
<path d="M1029.6,344.2l5.7,-2.8l9.4,-24.9l-9.8,-30.7l-12.3,0.9l11.9,29.8Z" class="g27_1" />
<path d="M975.7,289.1C963,286.7,963,286.7,963,286.7c-0.4,-11.5,-0.4,-11.5,-0.4,-11.5c23.3,-4.5,23.3,-4.5,23.3,-4.5c0,0,4.1,7,10.2,6.6c6.1,-0.4,11.4,-3.7,11.4,-9c0,-0.4,14.7,0,14.7,0c6.1,0.4,6.1,0.4,6.1,0.4c0.9,2,0.9,2,0.9,2c9,22.5,9,22.5,9,22.5c-14.7,0.8,-14.7,0.8,-14.7,0.8c2,29.8,2,29.8,2,29.8c-1.6,32.2,-1.6,32.2,-1.6,32.2C981,353.6,981,353.6,981,353.6c0,-29,0,-29,0,-29Z" class="g1_1" />
<path d="M1034.1,336c3.6,14.7,3.6,14.7,3.6,14.7c0,0,-4,7.4,-4.4,8.2c-0.9,0.4,-4.5,0.4,-4.5,0.4c-1.3,-3.7,-1.3,-3.7,-1.3,-3.7c0.8,-4.5,0.8,-4.5,0.8,-4.5c-1.2,-4.4,-1.2,-4.4,-1.2,-4.4c3.7,-7.4,3.7,-7.4,3.7,-7.4Z" class="g27_1" />
<path d="M987.5,223.4c0.4,2.8,2.9,4.5,5.3,4.1c2.9,-0.8,4.5,-3.3,4.1,-5.7c-0.4,-2.5,-3.3,-4.5,-5.7,-3.7c-2.5,0.4,-4.5,2.8,-3.7,5.3Z" class="g28_1" />
<path d="M994.1,222.2c0.4,2.8,3.2,4.5,5.7,3.6c2.4,-0.4,4.5,-2.8,3.6,-5.3c-0.4,-2.8,-2.8,-4.5,-5.7,-4.1c-2.4,0.9,-4.1,3.3,-3.6,5.8Z" class="g28_1" />
<path d="M1000.2,223c0.4,2.4,3.2,4.1,5.7,3.7c2.4,-0.5,4.5,-2.9,3.7,-5.8c-0.4,-2.4,-2.9,-4,-5.3,-3.6c-2.9,0.4,-4.5,3.2,-4.1,5.7Z" class="g28_1" />
<path d="M1005.5,226.7c0.4,2.8,2.8,4.4,5.3,4c2.9,-0.4,4.5,-3.2,4.1,-5.7c-0.4,-2.4,-3.3,-4.5,-5.7,-3.6c-2.5,0.4,-4.5,2.8,-3.7,5.3Z" class="g28_1" />
<path d="M983,252.4c11.5,-3.3,11.5,-3.3,11.5,-3.3c0,0,-0.9,5.3,-4.9,6.1c-4.1,0.8,-6.6,-2.8,-6.6,-2.8Z" class="g1_1" />
<path d="M1009.2,485c0,0,0,-0.4,0,-0.4c0,0,-0.5,0.4,0,0.4Z" class="g1_1" />
<path d="M985.5,228.3c0,-0.8,-3.7,-12.3,-3.7,-12.3c2.9,3.3,2.9,3.3,2.9,3.3c0,-7.3,0,-7.3,0,-7.3c5.3,3.6,5.3,3.6,5.3,3.6c3.2,-4.9,3.2,-4.9,3.2,-4.9c1.7,3.7,1.7,3.7,1.7,3.7c4.9,-5.3,4.9,-5.3,4.9,-5.3c2,5.7,2,5.7,2,5.7c4.9,-3.2,4.9,-3.2,4.9,-3.2c0,4.8,0,4.8,0,4.8c6.5,-5.3,6.5,-5.3,6.5,-5.3c-1.2,8.2,-1.2,8.2,-1.2,8.2c5.3,-0.4,5.3,-0.4,5.3,-0.4c-2.4,4.5,-2.4,4.5,-2.4,4.5c4.9,-0.4,4.9,-0.4,4.9,-0.4c-4.9,4.9,-4.9,4.9,-4.9,4.9c-1.2,1.2,-1.2,1.2,-1.2,1.2c-6.6,12.7,-6.6,12.7,-6.6,12.7c-1.2,0,-1.2,0,-1.2,0c-0.4,-1.7,-0.4,-1.7,-0.4,-1.7c-3.7,-8.5,-3.7,-8.5,-3.7,-8.5c-5.7,-2.1,-5.7,-2.1,-5.7,-2.1Z" class="g28_1" />
<path d="M722.1,232l4.9,-5.8l0,5.4l3.7,-4.1l0.4,3.2l6.1,-2.8l-2,2.4L725,234.4Z" class="g21_1" />
<path d="M491.4,325.8l-17.1,1.3L473.9,316l16.3,-1.2Z" class="g6_1" />
<path d="M485.7,324.2c-6.5,0.8,-6.5,0.8,-6.5,0.8c-1.7,0,-2.9,-1.2,-2.9,-2.8c0,-1.3,0.8,-2.5,2.1,-2.9c0.4,-1.6,1.6,-2.4,3.2,-2.8c1.2,0,2.5,0.8,3.3,1.6c0.4,0,0.4,0,0.4,0c1.6,0,2.9,1.2,3.3,2.8c0,1.7,-1.3,3.3,-2.9,3.3Zm-6.9,-4.5c-1.3,0.4,-2.1,1.2,-2.1,2.5c0,1.2,1.3,2,2.5,2c6.5,-0.4,6.5,-0.4,6.5,-0.4c1.2,0,2.5,-1.2,2.1,-2.9c0,-1.2,-1.3,-2.4,-2.5,-2c0,0,-0.4,0,-0.4,0c-0.4,0,-0.4,0,-0.4,0c-0.4,-1.2,-1.7,-1.6,-2.9,-1.6c-1.2,0,-2.4,1.2,-2.8,2.4Z" class="g1_1" />
<path d="M482.4,320.1c0,0.4,-0.4,0.4,-0.4,0.4c0,0,-0.4,0,-0.4,-0.4c0,-1.2,0,-1.2,0,-1.2c0,-0.4,0,-0.4,0.4,-0.4Z" class="g1_1" />
<path d="M482.4,318.9c0,0.4,0,0.4,0,0.4c0.4,0.4,0.9,0.8,0.9,1.2c0.4,0.9,-0.5,1.7,-1.3,1.7c-0.8,0,-1.2,-0.4,-1.2,-1.3c0,-0.4,0,-1.2,0.4,-1.2c0,-0.8,0,-0.8,0,-0.8c-0.8,0.4,-1.2,1.2,-1.2,2c0.4,0.9,1.2,1.7,2,1.7c1.3,0,2.1,-0.8,2.1,-2.1c0,-0.8,-0.8,-1.6,-1.7,-1.6Z" class="g1_1" />
<path d="M1011.2,266.9l-5.7,36.3l-2.3,0.5l-22,-33.5l2,-1.4l22.1,33.5l-2.2,0.5l5.7,-36.3Z" class="g5_1" />
<path d="M1014.1,312.8l-17.6,1.6l-0.8,-11.8l17.1,-1.3Z" class="g6_1" />
<path d="M1008.3,311.6c-6.9,0.4,-6.9,0.4,-6.9,0.4c-1.6,0,-2.8,-0.9,-2.8,-2.5c0,-1.6,0.8,-2.8,2,-3.2c0.8,-1.7,2,-2.9,3.7,-2.9c1.2,0,2.4,0.4,3.2,1.6c0.4,0,0.4,0,0.4,0c1.7,0,3.3,1.3,3.3,2.9c0,2,-1.2,3.2,-2.9,3.7Zm-7.3,-4.9c-1.2,0.4,-2,1.2,-2,2.8c0,1.2,1.2,2.1,2.4,2.1c6.9,-0.9,6.9,-0.9,6.9,-0.9c1.3,0,2.5,-1.2,2.5,-2.8c-0.4,-1.2,-1.6,-2.5,-2.9,-2.1c0,0,-0.4,0,-0.4,0c-0.4,-0.4,-0.4,-0.4,-0.4,-0.4c-0.4,-0.8,-1.6,-1.6,-2.8,-1.2c-1.7,0,-2.5,0.8,-2.9,2.5c-0.4,0,-0.4,0,-0.4,0Z" class="g1_1" />
<path d="M1004.7,307.1c0,0.4,0,0.4,0,0.4c-0.4,0,-0.4,0,-0.4,-0.4c-0.4,-1.7,-0.4,-1.7,-0.4,-1.7c0,0,0.4,0,0.4,0c0.4,-0.4,0.4,0,0.4,0Z" class="g1_1" />
<path d="M1005.1,305.8c0,0.5,0,0.5,0,0.5c0.4,0.4,0.8,0.8,0.8,1.2c0,0.8,-0.4,1.6,-1.2,1.6c-0.8,0,-1.7,-0.4,-1.7,-1.2c0,-0.4,0.4,-1.2,0.9,-1.2c0,-0.9,0,-0.9,0,-0.9c-0.9,0.5,-1.3,1.3,-1.3,2.1c0,1.2,0.8,2,2.1,2c1.2,-0.4,2,-1.2,2,-2.4c-0.4,-0.8,-0.8,-1.7,-1.6,-1.7Z" class="g1_1" />
<path d="M654.7,328.3l0,-4.5l-33,-3.7l-7.8,-14.7l-8.6,5.7l9.8,15.6Z" class="g30_1" />
<path d="M558,480.5l20.4,4.1l50.2,-2l-19.2,-3.7Z" class="g3_1" />
<path d="M607,470.3l14.7,8.6l-0.4,2.5l-16.8,-1.7l-5.3,-4.1l0,3.7l-4.9,-0.4l4.5,-9Z" class="g13_1" />
<path d="M612.7,410.3c1.6,1.3,-8.2,61.3,-8.2,61.3c0,0,-5.7,0.4,-5.7,-0.5c0,-1.2,3.3,-60.8,3.3,-60.8Z" class="g30_1" />
<path d="M576.8,470.7l15.5,9.4l-1.2,2.1l-16.8,-1.7l-4.9,-4l-0.4,3.2l-4.9,-0.4l4.5,-9.4Z" class="g13_1" />
<path d="M582.5,410.7c1.6,1.7,-8.6,61.7,-8.6,61.7c0,0,-5.3,0.4,-5.3,-0.8c0,-0.9,3.3,-60.5,3.3,-60.5Z" class="g30_1" />
<path d="M572.3,409.9l-7,-49.4l38.8,-3.6l10.6,48.5l-6.5,62.1l-14.3,0.8l8.2,-57.6L585.3,367.9l-0.8,-7l4.5,48.2l-10.2,57.2l-11.4,0Z" class="g31_1" />
<path d="M591.1,273.6c0,0,-0.4,8.6,11.4,7.3c9,-0.4,11.4,-9.7,11.4,-9.7c0,0,-13.5,7.3,-16.7,-5c-3.3,-12.6,-7.4,-6.5,-7.4,-6.5Z" class="g32_1" />
<path d="M596,268.3c0,0,2,6.5,8.9,6.1c6.6,-0.4,8.2,-12.6,8.2,-12.6c0,0,-8.2,7.7,-13.1,-0.4c-6.1,-11.1,-4.9,-3.7,-4.9,-3.7Z" class="g32_1" />
<path d="M595.5,260.9c0,0,2.1,4.5,8.6,4.1c7,-0.4,8.2,-11,8.2,-11c0,0,-7.8,8.2,-12.7,0c-6.5,-11,-5.3,-3.7,-5.3,-3.7Z" class="g32_1" />
<path d="M602.1,289.5c-2.5,0.4,-10.6,-6.9,-10.6,-6.9c-19.6,2.8,-19.6,2.8,-19.6,2.8c13.8,13.9,13.8,13.9,13.8,13.9Z" class="g30_1" />
<path d="M574.7,283.8c0,0.4,0,0.8,0,1.2c0,5.3,11,29.4,11,29.4c0,0,11.1,-22,11.1,-27.3c0,0,0,-0.4,-0.4,-0.4c17.5,3.6,17.5,3.6,17.5,3.6c-5.3,18.8,-5.3,18.8,-5.3,18.8c-4.5,22,-4.5,22,-4.5,22c9,30.7,9,30.7,9,30.7c-19.2,2.4,-19.2,2.4,-19.2,2.4c-6.5,-24.9,-6.5,-24.9,-6.5,-24.9c-7.8,25.3,-7.8,25.3,-7.8,25.3c-23.2,-4.5,-23.2,-4.5,-23.2,-4.5c6.1,-11.4,6.1,-11.4,6.1,-11.4c5.7,-18.8,5.7,-18.8,5.7,-18.8c-6.1,-21.6,-6.1,-21.6,-6.1,-21.6c-6.2,-20,-6.2,-20,-6.2,-20Z" class="g33_1" />
<path d="M548.6,348.7l-4.9,-3.3l13.5,-46.5l9.3,2Z" class="g30_1" />
<path d="M575.1,309.5l-24.9,0.4l4.9,-21.6l9,-2.5l10.6,-2Z" class="g33_1" />
<path d="M578.8,240.1c-18.4,3.7,-8.2,28.2,-8.2,28.2c9.4,10.2,9.4,10.2,9.4,10.2c21.3,-22,21.3,-22,21.3,-22c0,0,-4.1,-7.4,-7,-10.3c-6.1,-6.1,-11.4,-6.9,-15.5,-6.1Z" class="g32_1" />
<path d="M586.2,291.1l-9.8,-25.7l16.3,13.9l-6.1,3.3l-2.1,2.8Z" class="g10_1" />
<path d="M582.1,275.6l2.8,-3.2l2.9,-3.7L586.2,265l2,-7.3l-1.6,-6.6l6.1,-0.4l6.1,12.3l2.9,13.9l-9,1.2Z" class="g30_1" />
<path d="M594.7,259.7l3.3,9.8l4.9,-1.6l-6.5,-10.2Z" class="g30_1" />
<path d="M591.5,266.7l1.6,-4.1l4.5,-2.1l-4.5,31.1l-15.9,-0.9L582.5,272Z" class="g30_1" />
<path d="M591.9,259.7c0.4,0.8,0.8,1.2,1.6,1.2c0.8,0,1.2,-0.8,1.2,-1.6c-0.4,-0.8,-0.8,-1.2,-1.6,-1.2c-0.8,0.4,-1.2,1.2,-1.2,1.6Z" class="g34_1" />
<path d="M588.2,257.3c0,0,4.1,13.9,-5.7,21.6c-7.8,6.1,-18.8,-0.4,-18.8,-0.4c0,0,20,-3.7,14.3,-15.5c-5.7,-11.9,1.6,-10.2,1.6,-10.2Z" class="g32_1" />
<path d="M579.2,264.2c0,0,1.6,4.9,-4.1,9.8c-5.3,4.9,-16.7,-2.8,-16.7,-2.8c0,0,14.7,0.8,13.1,-9c-2.5,-13.1,1.6,-6.6,1.6,-6.6Z" class="g32_1" />
<path d="M575.1,260.1c0,0,3.3,4.5,-2.4,9c-5.7,4.9,-17.2,-5.7,-17.2,-5.7c0,0,14.3,2.4,13.1,-7.4c-1.2,-7.3,2.9,-8.1,2.9,-8.1Z" class="g32_1" />
<path d="M598,271.2l-6.1,-0.9l4.1,3.3Z" class="g1_1" />
<path d="M534.3,378.1l32.7,0l0,-25.3l-32.7,0l0,25.3Z" class="g1_1" />
<path d="M602.5,307.5l17.5,0.8l-6.1,-20.8l-6.5,-0.8L598,286.2Z" class="g33_1" />
<path d="M545.7,340.5c-5.3,13.9,-5.3,13.9,-5.3,13.9c0,0,2.9,7.8,3.3,8.2c0.4,0.4,4.1,0.8,4.1,0.8c1.6,-2.9,1.6,-2.9,1.6,-2.9c0,-4.5,0,-4.5,0,-4.5c0.8,-3.2,0.8,-3.2,0.8,-3.2c-2.4,-7.4,-2.4,-7.4,-2.4,-7.4Z" class="g30_1" />
<path d="M598.8,283.9l-3.3,31.9l-2.2,0.5L572.5,284.5l2,-1.4L595.4,315l-2.3,0.5l3.3,-31.8Z" class="g5_1" />
<path d="M646.6,323.4c6.9,-1.6,6.9,-1.6,6.9,-1.6c0,0,5.3,4.5,6.1,4.9c0.5,0.4,0,4,0,4c-2.8,1.3,-2.8,1.3,-2.8,1.3c-4.5,-0.4,-4.5,-0.4,-4.5,-0.4c-6.5,0,-6.5,0,-6.5,0c0,-3.3,0,-3.3,0,-3.3Z" class="g30_1" />
<path d="M644.1,321.8l11.1,15.1l4,-2.5L647.8,319.3Z" class="g35_1" />
<path d="M658,337.7l1.2,1.6l1.7,-0.4l-1.7,-2.5Z" class="g35_1" />
<path d="M659.6,337.3l-0.4,-2.9l-4,2.5l3.2,1.6Z" class="g24_1" />
<path d="M658,334l-0.4,0.4L647,320.5l0.8,-0.8Z" class="g1_1" />
<path d="M644.9,327.1l10.3,0.4l-1.7,4.5l-7.7,0Z" class="g30_1" />
<path d="M603.7,325L587,326.7l-0.8,-11.5L602.5,314Z" class="g6_1" />
<path d="M598.4,323.8c-6.9,0.4,-6.9,0.4,-6.9,0.4c-1.3,0,-2.5,-0.8,-2.9,-2.4c0,-1.7,0.8,-2.9,2.5,-2.9c0.4,-1.6,1.6,-2.9,3.2,-2.9c1.2,0,2.5,0.5,3.3,1.7c1.6,0,3.2,1.2,3.2,2.8c0,1.7,-0.8,2.9,-2.4,3.3Zm-7.3,-4.5c-1.3,0,-2.1,1.2,-1.7,2.5c0,1.2,0.8,2,2.1,2c6.9,-0.8,6.9,-0.8,6.9,-0.8c1.2,0,2,-1.2,2,-2.5c-0.4,-1.2,-1.2,-2.4,-2.4,-2.4c-0.4,0,-0.4,0,-0.4,0c-0.4,0.4,-0.4,0.4,-0.4,0.4c0,-0.4,0,-0.4,0,-0.4c-0.8,-0.8,-1.7,-1.6,-2.9,-1.6c-1.6,0.4,-2.4,1.2,-2.8,2.4c0,0.4,0,0.4,0,0.4c-0.4,0,-0.4,0,-0.4,0Z" class="g1_1" />
<path d="M594.7,319.7c0,0,0,0.4,-0.4,0.4c0,0,0,-0.4,0,-0.4c-0.4,-1.6,-0.4,-1.6,-0.4,-1.6c0,0,0.4,-0.4,0.4,-0.4c0,0,0.4,0.4,0.4,0.4Z" class="g1_1" />
<path d="M595.1,318.5c0,0.4,0,0.4,0,0.4c0.4,0,0.9,0.8,0.9,1.2c0,0.8,-0.5,1.3,-1.3,1.3c-0.8,0.4,-1.6,-0.5,-1.6,-1.3c0,-0.4,0.4,-0.8,0.8,-1.2c0,-0.4,0,-0.4,0,-0.4c-0.8,0.4,-1.2,0.8,-1.2,1.6c0,1.3,0.8,2.1,2,2.1c0.8,0,1.7,-1.3,1.7,-2.1c0,-0.8,-0.4,-1.6,-1.3,-1.6Z" class="g1_1" />
<path d="M752,261.4l-13.1,13.9l-1.7,-1.7l13,-13.9Z" class="g5_1" />
<path d="M886.2,282.2l-13.5,35.5l-2.3,-0.2l-7.8,-36.7l2.4,-0.5l7.8,36.7l-2.4,-0.2l13.5,-35.5Z" class="g5_1" />
<path d="M878.1,329.5l-17.6,-4.1l2.9,-11l16.7,3.7Z" class="g6_1" />
<path d="M872.8,326.3c-7,-1.7,-7,-1.7,-7,-1.7c-1.2,0,-2,-1.6,-2,-3.2c0.4,-1.7,2,-2.5,3.3,-2.1c0.8,-1.6,2.4,-2,4.1,-2c1.2,0.4,2.4,1.6,2.8,2.8l0.4,0c1.7,0.4,2.5,2.1,2.1,3.7c-0.4,1.6,-2.1,2.9,-3.7,2.5Zm-5.7,-6.6c-1.3,-0.4,-2.1,0.4,-2.5,1.7c-0.4,1.2,0.4,2.4,1.7,2.8c6.9,1.6,6.9,1.6,6.9,1.6c1.2,0.5,2.4,-0.8,2.9,-2c0.4,-1.6,-0.5,-2.9,-2.1,-3.3l-0.4,0c-0.4,-1.2,-1.2,-2.4,-2.4,-2.4c-1.7,-0.4,-2.9,0.4,-3.7,1.6c-0.4,0,-0.4,0,-0.4,0Z" class="g1_1" />
<path d="M870.7,321.4c0,0,-0.4,0,-0.4,0c-0.4,0,-0.4,0,-0.4,-0.5c0.4,-1.6,0.4,-1.6,0.4,-1.6c0,0,0.4,0,0.4,0c0.5,0,0.5,0,0.5,0.4Z" class="g1_1" />
<path d="M871.2,320.1c0,0.4,0,0.4,0,0.4c0.4,0.4,0.8,0.9,0.4,1.3c0,0.8,-0.9,1.6,-1.7,1.2c-0.8,0,-1.2,-0.8,-1.2,-1.6c0.4,-0.5,0.8,-0.9,1.2,-1.3c0,-0.4,0,-0.4,0,-0.4c-0.8,0,-1.6,0.8,-1.6,1.7c-0.4,0.8,0.4,2,1.6,2c0.8,0.4,2.1,-0.4,2.5,-1.2c0,-0.8,-0.4,-1.7,-1.2,-2.1Z" class="g1_1" />
<path d="M887.9,254.8c0,2.5,2.4,4.9,4.9,4.9c2.9,0,4.9,-2.4,4.9,-4.9c0,-2,-2,-4.9,-4.9,-4.9c-2.5,0,-4.9,2.1,-4.9,4.9Z" class="g36_1" />
<path d="M883,271.6c0,2.4,2,4.9,4.9,4.9c2.4,0,4.9,-2.5,4.9,-4.9c0,-2.9,-2.5,-4.9,-4.9,-4.9c-2.9,0,-4.9,2,-4.9,4.9Z" class="g36_1" />
<path d="M888.3,269.1c0,2.9,2.4,4.9,4.9,4.9c2.9,0,4.9,-1.6,4.9,-4.9c0,-2.9,-2,-4.9,-4.9,-4.9c-2.5,0,-4.9,2,-4.9,4.9Z" class="g36_1" />
<path d="M890.7,262.2c0,2.8,2.5,4.9,5,4.9c2.8,0,4.8,-2.1,4.8,-4.9c0,-2.9,-2,-4.9,-4.8,-4.9c-2.5,0,-5,2,-5,4.9Z" class="g36_1" />
<path d="M867.9,238.5c-18.8,3.7,-6.5,24.5,-6.5,24.5c9.3,10.6,9.3,10.6,9.3,10.6c22.1,-22.5,22.1,-22.5,22.1,-22.5c0,0,-4.5,-7.7,-7.4,-10.6c-6.5,-6.1,-13.4,-2.8,-17.5,-2Z" class="g36_1" />
<path d="M877.3,286.2l-9.8,-26.1L883.8,274l-6.1,3.3l-2.1,3.2Z" class="g36_1" />
<path d="M873.2,270.7l2.9,-3.6l2.8,-3.7l-1.6,-4.1l2,-7.3l-1.6,-6.6l6.1,-0.4l6.5,12.7l2.9,14.3l-9.4,0.8Z" class="g15_1" />
<path d="M885.9,254.4l3.2,9.8l5.3,-1.6l-6.9,-10.2Z" class="g15_1" />
<path d="M882.6,260.9l1.6,-3.6l4.9,-2.5l-7.7,31.9l-13.5,-0.9l5.3,-18.7Z" class="g15_1" />
<path d="M883,254.4c0.4,0.8,0.8,1.2,1.6,1.2c0.8,-0.4,1.3,-1.2,1.3,-2c-0.5,-0.4,-0.9,-0.8,-1.7,-0.8c-0.8,0,-1.2,0.8,-1.2,1.6Z" class="g11_1" />
<path d="M890.7,265l-8.1,-0.4l4.1,4.9Z" class="g1_1" />
<path d="M869.5,266.2c0,2.5,2.5,4.5,4.9,4.5c2.9,0,4.9,-2,4.9,-4.9c0,-2.8,-2,-4.9,-4.9,-4.9c-2.4,0,-4.9,2.5,-4.9,5.3Z" class="g36_1" />
<path d="M866.3,272.4c0,2.4,2,4.5,4.9,4.5c2.8,0,4.9,-2.1,4.9,-4.9c0,-2.5,-2.1,-4.5,-4.9,-4.5c-2.9,0,-4.9,2,-4.9,4.9Z" class="g36_1" />
<path d="M863,262.6c0,2.4,2,4.9,4.9,4.9c2.8,0,4.9,-2.5,4.9,-4.9c0,-2.9,-2.1,-4.9,-4.9,-4.9c-2.9,0,-4.9,2,-4.9,4.9Z" class="g36_1" />
<path d="M858.9,269.9c0,2.5,2,4.5,4.9,4.5c2.9,0,4.9,-2,4.9,-4.5c0,-2.8,-2,-4.9,-4.9,-4.9c-2.9,0,-4.9,2.1,-4.9,4.9Z" class="g36_1" />
<path d="M853.6,265c0,2.5,2,4.9,4.9,4.9c2.9,0,4.9,-2.4,4.9,-4.9c0,-2.8,-2,-4.9,-4.9,-4.9c-2.9,0,-4.9,2.1,-4.9,4.9Z" class="g36_1" />
<path d="M852.8,256.9c0,2.8,2,4.9,4.5,4.9c2.8,0,4.9,-2.1,4.9,-4.9c0,-2.9,-2.1,-4.9,-4.9,-4.9c-2.5,0,-4.5,2,-4.5,4.9Z" class="g36_1" />
<g clip-path="url(#c1_1)">
<path d="M148.9,483.4l5.3,2.4L64.3,485.4l9,-3.6l51.5,-1.7Z" class="g3_1" />
</g>
<path d="M82.7,284.2C91.3,354,91.3,354,91.3,354c20.4,0,20.4,0,20.4,0c0,0,10.2,-67.3,9,-66.9c-0.8,0.4,-38,-2.9,-38,-2.9Z" class="g1_1" />
<path d="M108,258.1c0,0,5.3,4.9,15.1,1.6c10.2,-3.7,5.7,-12.6,5.7,-12.6c0,0,-8.5,12.6,-16.3,1.2c-7.7,-11.4,-10.2,-3.7,-10.2,-3.7Z" class="g37_1" />
<path d="M108.8,261.4c0,0,1.3,5.7,11.5,4.8c9.8,-0.4,9.8,-9.3,9.8,-9.3c0,0,-10.6,9.8,-14.7,-3.3c-4.5,-13.1,-9,-6.5,-9,-6.5Z" class="g37_1" />
<path d="M110.9,253.6c0,0,4.9,2.9,11.4,-1.2c6.5,-4.1,1.2,-9.8,1.2,-9.8c0,0,-3.2,10.2,-11,3.2c-7.7,-7.3,-8.1,-1.2,-8.1,-1.2Z" class="g37_1" />
<path d="M119,285.8c-2.4,0,-11,-7.7,-11,-7.7c-20.4,3.2,-20.4,3.2,-20.4,3.2c14.3,14.3,14.3,14.3,14.3,14.3Z" class="g38_1" />
<path d="M125.2,473.2l16.7,7.7l-1.2,3.7l-17.6,-1.2l-5.7,-2l0,1.6l-3.7,-0.4l-0.4,-9Z" class="g39_1" />
<path d="M123.1,397.3c0.4,0.4,8.6,15.9,7,33.4c-1.7,19.2,-7,44.1,-7,44.1c0,0,-5.7,6.1,-7.7,-1.2c-0.4,-0.4,4.1,-24.1,4.5,-42c0.4,-18.4,-11.5,-35.1,-11.5,-35.1Z" class="g38_1" />
<path d="M93.7,473.6l16.8,7.8l-1.3,3.6L91.7,483.8L86,481.4l0,2L81.9,483l0,-9Z" class="g39_1" />
<path d="M100.7,397.3c1.2,1.2,-9.8,77.5,-9.8,77.5c0,0,-5.7,6.1,-7.8,-1.2c0,-0.8,4.5,-77.1,4.5,-77.1Z" class="g38_1" />
<path d="M128,401.4l-8.1,-51.1L79,349.9l2.1,49.8Z" class="g39_1" />
<path d="M89.7,282.2c0.8,-2.1,0.8,-1.7,0.8,-1.3c0,5.3,11.4,37.2,11.4,37.2c0,0,11.4,-29.8,11.4,-35.1c0,0,0,-0.4,0,-0.8c17.6,8.9,17.6,8.9,17.6,8.9c-4.1,14.7,-4.1,14.7,-4.1,14.7c-6.1,23.3,-6.1,23.3,-6.1,23.3c6.5,35.1,6.5,35.1,6.5,35.1c-16.7,3.3,-16.7,3.3,-16.7,3.3c-7,-29.8,-7,-29.8,-7,-29.8C99,367.5,99,367.5,99,367.5C73.3,363,73.3,363,73.3,363c4.1,-17.2,4.1,-17.2,4.1,-17.2c6.1,-14.2,6.1,-14.2,6.1,-14.2c-6.1,-16,-6.1,-16,-6.1,-16C72.5,285.4,72.5,285.4,72.5,285.4Z" class="g40_1" />
<path d="M89.2,298.5l-22.4,0.8L69.2,292l2.1,-6.2L90.5,283Z" class="g40_1" />
<path d="M92.9,237.7C73.7,241.4,86,263.4,86,263.4C95.8,274,95.8,274,95.8,274c22.4,-23.3,22.4,-23.3,22.4,-23.3c0,0,-4.5,-7.7,-7.3,-10.6c-6.5,-6.5,-13.9,-3.2,-18,-2.4Z" class="g37_1" />
<path d="M98.2,271.2l2.9,-3.3l2.8,-4.1l-1.6,-4.1l2.1,-7.7l-1.7,-7l6.5,-0.4l6.6,13.5l2.8,14.3l-9.4,1.2Z" class="g38_1" />
<path d="M111.3,254.4l3.3,10.2l5.3,-1.6l-7,-10.6Z" class="g38_1" />
<path d="M108,261.4l1.7,-4.1l0.4,2l-2.5,26.5l-14.7,0.9l5.3,-19.2Z" class="g38_1" />
<path d="M108.4,254.4c0,0.8,0.8,1.2,1.7,1.2c0.8,-0.4,1.2,-0.8,1.2,-1.6c-0.4,-0.8,-0.8,-1.2,-1.6,-1.2c-0.9,0,-1.3,0.8,-1.3,1.6Z" class="g41_1" />
<path d="M97,262.2c0,0,2,6.9,-5.7,13.4c-7.8,6.6,-17.6,-0.4,-17.6,-0.4c0,0,19.2,-2,13.1,-14.3c-6.1,-12.2,1.6,-10.6,1.6,-10.6Z" class="g37_1" />
<path d="M92.5,259.7c0,0,1.6,5.3,-4.1,10.2c-6.1,5.3,-15.9,-3.2,-15.9,-3.2c0,0,13.5,1.2,11.8,-9c-2.4,-13.9,1.7,-7,1.7,-7Z" class="g37_1" />
<path d="M145.2,304.2c0.4,0,6.9,-2.9,6.9,-2.9c3.3,-0.4,3.3,-0.4,3.3,-0.4c0,0,0.4,-2.8,-0.4,-2.8c-0.8,0,-7.8,0,-7.8,0Z" class="g38_1" />
<path d="M155,298.1l-4.5,2.8l-1.6,3.7l2,3.7l4.5,-0.8Z" class="g38_1" />
<path d="M137.4,293.6L111.3,281.3l13.1,19.2l7.3,2.9Z" class="g40_1" />
<path d="M91.7,278.9l1.2,32.2l-2.2,-0.6l20,-30.6l2,1.3l-20,30.6l-2.2,-0.6L89.2,278.9Z" class="g5_1" />
<path d="M95.8,324.2L79.9,317.7l4.4,-10.2L99.5,314Z" class="g6_1" />
<path d="M102.7,245c0,0,8.6,20.8,-5.7,34.3C88.8,286.7,81.9,283,81.9,283c0,0,15.9,-7,6.5,-18.4C79,252.8,87.2,252.4,87.2,252.4Z" class="g37_1" />
<path d="M78.6,340.1C66.8,322.2,66.8,322.2,66.8,322.2c1.6,-23.3,1.6,-23.3,1.6,-23.3c7.8,0,7.8,0,7.8,0c-2.1,20.4,-2.1,20.4,-2.1,20.4c9.8,22.9,9.8,22.9,9.8,22.9c3.3,7.3,3.3,7.3,3.3,7.3c-0.4,1.6,-0.4,1.6,-0.4,1.6c-2.5,-2.8,-2.5,-2.8,-2.5,-2.8c0.9,2,0.9,2,0.9,2c1.2,2.1,1.2,2.1,1.2,2.1c1.2,4.1,1.2,4.1,1.2,4.1c-0.4,3.2,-0.4,3.2,-0.4,3.2c0,0,-3.7,0.8,-4.5,0.4c-0.4,-0.4,-5.3,-6.9,-5.3,-6.9Z" class="g38_1" />
<path d="M91.7,320.5c-6.1,-2.4,-6.1,-2.4,-6.1,-2.4c-1.3,-0.4,-2.1,-2.1,-1.7,-3.3c0.9,-1.2,2.1,-2,3.3,-1.6c1.2,-1.2,2.9,-1.6,4.1,-1.2c1.2,0.8,2,1.6,2.4,2.8c0,0.4,0,0.4,0,0.4c1.7,0.4,2.1,2.1,1.7,3.7c-0.8,1.6,-2.5,2.5,-3.7,1.6Zm-4.5,-6.9c-0.8,-0.4,-2,0.4,-2.4,1.2c-0.9,1.2,0,2.5,0.8,2.9c6.1,2.4,6.1,2.4,6.1,2.4c1.2,0.4,2.4,0,3.3,-1.2c0.4,-1.6,0,-2.9,-1.3,-3.3c-0.4,0,-0.4,0,-0.4,0c-0.4,0,-0.4,0,-0.4,0c0,-0.4,0,-0.4,0,-0.4c0,-1.2,-0.8,-2,-1.6,-2.4c-1.2,-0.8,-2.9,-0.4,-3.7,0.8c-0.4,0,-0.4,0,-0.4,0Z" class="g1_1" />
<path d="M90.5,315.6c0,0,-0.4,0,-0.4,0c-0.4,0,-0.4,0,-0.4,-0.4C90.5,314,90.5,314,90.5,314c0,-0.4,0,-0.4,0.4,-0.4c0,0,0,0.4,0,0.4Z" class="g1_1" />
<path d="M91.3,314.4c-0.4,0.4,-0.4,0.4,-0.4,0.4c0.4,0.4,0.4,1.2,0.4,1.7c-0.4,0.8,-1.2,0.8,-2.1,0.8c-0.4,-0.4,-0.8,-1.3,-0.8,-2.1c0.4,-0.4,0.8,-0.8,1.3,-0.8C90.1,314,90.1,314,90.1,314c-0.9,0,-1.7,0.4,-2.1,1.2c-0.4,0.8,0,2.1,1.2,2.5c0.9,0.4,2.1,0,2.5,-1.2c0.4,-0.9,0,-1.7,-0.4,-2.1Z" class="g1_1" />
<path d="M388.5,473.6l-44.1,4.1l-47.7,0L321.6,474l37.5,-1.2Z" class="g3_1" />
<path d="M318.3,485l3.7,2.9l-48.6,2l-42.5,-3.2l39.2,-4.5Z" class="g3_1" />
<path d="M372.2,464.2l20.4,7.8l-6.5,2.4l-25.3,-1.6L362,460.9Z" class="g4_1" />
<path d="M259.9,283.8l69,4.1l10.6,-16.3l-69,4.4l-11.4,2.5Z" class="g1_1" />
<path d="M323.2,233.2l6.5,23.7L331,245.4Z" class="g42_1" />
<path d="M328.1,217.7c0,0,-9,7.7,9.8,6.1c17.1,-1.6,13.5,16.7,13.5,16.7c-8.2,26.6,-8.2,26.6,-8.2,26.6C322.4,234.4,322.4,234.4,322.4,234.4c0,0,-1.2,-2.4,-1.2,-7.3c0,-4.9,1.2,-6.6,6.9,-9.4Z" class="g42_1" />
<path d="M314.6,467.1l-20,8.5l7,2.1l24.9,-2.9l-1.7,-11.4Z" class="g4_1" />
<path d="M357.5,345.4l-33.9,-0.8l-6.5,56.3L313,468.7l13.9,2.9l4.9,-62.5l8.1,-42.4Z" class="g43_1" />
<path d="M338.7,335.2l21.3,7.4l5.3,53l8.1,73.9l-12.6,0L347.7,403.4l-6.9,-38.8Z" class="g43_1" />
<path d="M320.7,317.7l-6.1,-33.9l0,-10.2l15.5,-2.9l3.7,-1.2l11.1,-1.2l20.4,1.6l-4.5,75.5l-38,2.5Z" class="g1_1" />
<path d="M343.2,272.8l-3.3,4.5l-5.7,-2.9l-2.4,-7.3l-1.3,-2.5l-2.4,-22.8l0.8,-4.1l9,0.8l10.2,-1.2l0.8,7.3L346.5,263l-1.6,3.2Z" class="g44_1" />
<path d="M335.5,246.7c-0.5,0.4,-0.9,0.8,-1.3,0.8c-0.8,0,-0.8,-0.8,-0.8,-1.3c0,-0.8,0.4,-1.2,1.2,-0.8c0.4,0,0.9,0.4,0.9,1.3Z" class="g11_1" />
<path d="M343.2,246.7c0,0.4,-0.4,0.8,-1.2,0.8c-0.4,0,-0.8,-0.8,-0.8,-1.3c0.4,-0.8,0.8,-1.2,1.2,-0.8c0.8,0,1.2,0.4,0.8,1.3Z" class="g11_1" />
<path d="M335.9,253.6l4.5,0.4l-2.5,0.8Z" class="g45_1" />
<path d="M337.9,279.3c3.7,12.7,-2.9,46.5,-2.9,46.5c3.7,6.6,3.7,6.6,3.7,6.6c4.1,-8.2,4.1,-8.2,4.1,-8.2c0,0,3.3,-28.6,-3.3,-46.1Z" class="g4_1" />
<path d="M334.6,276l4.9,6.2l3.7,-6.6l-3.7,2.5Z" class="g4_1" />
<path d="M333.8,261.4l9.4,-0.5l-2.4,4.1Z" class="g1_1" />
<path d="M426.1,280.5l-68.6,3.7l0,-14.3l60,2.1l9.8,2.4Z" class="g1_1" />
<path d="M422,474l15.1,7.4l-6.5,2.4l-25.3,-1.6l6.5,-11.5Z" class="g46_1" />
<path d="M400,469.1l-17.6,12.7l6.9,0.8l24.1,-8.2l-4.5,-11Z" class="g46_1" />
<path d="M375.5,399.3L380,340.9l42,0l4.1,64.1l-4.9,71.9l-16.7,3.2L411,411.6l-9,-52.7l-1.2,-8.2l-7.4,47.8l16.8,71l-13.5,0.4Z" class="g47_1" />
<path d="M401.6,217.3c0,0,1.6,8.9,-10.6,12.6c-9,3.3,-12.3,17.6,-12.3,17.6c18.8,15.9,18.8,15.9,18.8,15.9c10.6,-26.5,10.6,-26.5,10.6,-26.5c0,0,-0.8,-5.8,-2,-9.4c-1.2,-3.3,-4.5,-10.2,-4.5,-10.2Z" class="g28_1" />
<path d="M398.7,272.4l-3.6,-21.7l15.1,11.5l-4.9,4l-1.7,3.3Z" class="g48_1" />
<path d="M400,260.9l2,-3.6l1.6,-4.1l-2,-2.9L402,243l-2.4,-5.7l8.1,-1.7l5.3,10.6l4.1,16l-4.9,2L411,285l-10.2,-0.8l-3.7,0.4Z" class="g48_1" />
<path d="M408.5,243.8l5.3,10.2l4.5,-2.9L411.4,243Z" class="g48_1" />
<path d="M401.6,251.1l-1.2,-3.6L402,243l14.7,19.2l-18,7.3l0,-8.6Z" class="g48_1" />
<path d="M406.9,245c0.4,0.8,1.2,1.2,1.6,0.8c0.9,-0.4,1.3,-1.2,0.9,-1.6c-0.5,-0.8,-1.3,-0.8,-1.7,-0.8c-0.8,0.4,-1.2,1.2,-0.8,1.6Z" class="g11_1" />
<path d="M417.5,277.7l-8.1,-4.9l-19.6,2L402,286.2Z" class="g48_1" />
<path d="M431.8,352l5.7,-2.1l-1.2,-30.2L435.5,296l-9,0l2.5,25.4Z" class="g48_1" />
<path d="M414.3,302.6l23.6,0L433,282.2l-2.8,-4.1l-2.5,-0.8Z" class="g46_1" />
<path d="M393.8,273.6c0,0.4,0,0.8,0,1.2c0,4.5,4.5,7.8,10.3,7.8c5.7,0,10.2,-3.3,10.2,-7.8c0,-0.4,0,-0.4,0,-0.8c15.9,4.1,15.9,4.1,15.9,4.1c0.4,18.8,0.4,18.8,0.4,18.8c-5.3,28.9,-5.3,28.9,-5.3,28.9c0.8,29.4,0.8,29.4,0.8,29.4c-49.4,0,-49.4,0,-49.4,0c3.7,-29.8,3.7,-29.8,3.7,-29.8c-4.5,-49.8,-4.5,-49.8,-4.5,-49.8Z" class="g46_1" />
<path d="M371.8,349.1l-5.3,-3.3l4.1,-54.2l8.9,0.4Z" class="g48_1" />
<path d="M391.4,298.9l-23.7,-0.8l7.4,-20.8l0.8,-1.7l5.3,-0.8Z" class="g46_1" />
<path d="M367.3,340.5C364.8,354,364.8,354,364.8,354c0,0,4.1,6.5,4.5,6.9c0.5,0.5,4.1,0.5,4.1,0.5c0.8,-3.3,0.8,-3.3,0.8,-3.3C373.4,354,373.4,354,373.4,354c0.4,-3.3,0.4,-3.3,0.4,-3.3c-3.6,-6.1,-3.6,-6.1,-3.6,-6.1Z" class="g48_1" />
<path d="M432.2,277.3c0.8,3.6,0.8,3.6,0.8,3.6c0,0,-5.7,7.8,-6.1,8.2c-0.8,0.4,-4.1,0.8,-4.1,0.8c-0.8,-2,-0.8,-2,-0.8,-2c2.9,-6.1,2.9,-6.1,2.9,-6.1c-3.7,-6.2,-3.7,-6.2,-3.7,-6.2c5.3,-1.2,5.3,-1.2,5.3,-1.2Z" class="g44_1" />
<path d="M381.2,245.4c0.4,-0.8,-1.7,-6.9,-1.7,-6.9c4.1,0,4.1,0,4.1,0c1.3,-5.3,1.3,-5.3,1.3,-5.3c4.4,-1.6,4.4,-1.6,4.4,-1.6c2.9,-4.9,2.9,-4.9,2.9,-4.9c2.1,1.6,2.1,1.6,2.1,1.6c3.6,-4.9,3.6,-4.9,3.6,-4.9c2.9,3.3,2.9,3.3,2.9,3.3c-11,6.5,-11,6.5,-11,6.5C382,245.4,382,245.4,382,245.4Z" class="g28_1" />
<path d="M267.3,282.2c2,0,9.4,-6.6,9.4,-6.6c18.3,2.5,18.3,2.5,18.3,2.5c-9.4,13,-9.4,13,-9.4,13Z" class="g49_1" />
<path d="M257.1,472.8l-18,7.7l4.9,3.3l25.3,-3.3l-1.6,-8.1Z" class="g50_1" />
<path d="M304,475.6L285.6,483l4.9,3.3L316.3,483l-1.7,-7.4Z" class="g50_1" />
<path d="M252.2,321.4l-1.7,11.4l-4.9,3.2L242,331.6l3.2,-20l5.7,-12.7l9.8,2.4l-2,11.5Z" class="g49_1" />
<path d="M261.1,423.8c-1.2,1.2,-3.2,50.6,-3.2,50.6c0,0,9,0.4,9,-0.8c0,-0.8,4,-49.8,4,-49.8Z" class="g49_1" />
<path d="M298.7,422.2c1.2,1.2,15.5,55.9,15.5,55.9c0,0,-9,1.2,-9,0c0,-0.8,-15.1,-55.9,-15.1,-55.9Z" class="g49_1" />
<path d="M301.6,396.5L304.4,343l-40,0.4l-4.1,56.3l-2.4,24.9l16.7,3.3l0.8,-22.1L284,365l1.2,6.6l0,31l1.7,24.9l15.5,0.4Z" class="g51_1" />
<path d="M306.1,382.6L290.9,383l-2.8,-8.6l14.7,-0.8Z" class="g51_1" />
<path d="M272.2,305.8l-24.5,-6.9l4.5,-13.5l4,-4.1l2.5,-0.8Z" class="g5_1" />
<path d="M292.6,276.9c0,0.4,0,0.8,0,1.2c0,4.9,-4.5,7.7,-10.2,7.7c-5.7,0,-10.2,-2.8,-10.2,-7.7c0,-0.4,0,-0.4,0,-0.8c-16,4,-16,4,-16,4c-0.4,18.8,-0.4,18.8,-0.4,18.8c6.2,34.3,6.2,34.3,6.2,34.3c-2.5,28.2,-2.5,28.2,-2.5,28.2c48.2,-4.1,48.2,-4.1,48.2,-4.1C304,332,304,332,304,332c5.7,-53.9,5.7,-53.9,5.7,-53.9Z" class="g5_1" />
<path d="M314.6,352.4l4.9,-3.7l-3.6,-54.3l-8.6,2.1Z" class="g49_1" />
<path d="M294.6,300.5l23.3,-0.8l-5.3,-20.4L311,277.7l-13.9,-0.4Z" class="g5_1" />
<path d="M318.7,343.8c2.9,13.5,2.9,13.5,2.9,13.5c0,0,-4.1,6.5,-4.5,6.9c-0.4,0.8,-4.1,0.4,-4.1,0.4c-0.8,-3.2,-0.8,-3.2,-0.8,-3.2c0.8,-4.1,0.8,-4.1,0.8,-4.1C312.6,354,312.6,354,312.6,354c3.7,-6.1,3.7,-6.1,3.7,-6.1Z" class="g49_1" />
<path d="M254.2,280.5c-1.2,3.7,-1.2,3.7,-1.2,3.7c0,0,3.2,7.8,3.7,8.2c0.8,0.4,4,0.8,4,0.8c0.8,-2.1,0.8,-2.1,0.8,-2.1c0,-6.1,0,-6.1,0,-6.1c2.5,-5.7,2.5,-5.7,2.5,-5.7c-4.1,-1.6,-4.1,-1.6,-4.1,-1.6Z" class="g44_1" />
<path d="M258.3,479.3l-1.6,-0.4l-1.3,1.2L255,478.5l-1.6,-0.8l1.6,-0.8l0,-1.7l1.7,1.3l1.6,-0.5l-0.8,1.7Z" class="g1_1" />
<path d="M304,481.8l-1.6,-0.4l-1.2,1.2l-0.4,-1.7l-1.3,-0.8l1.3,-0.8l0.4,-2l1.2,1.6l1.6,-0.4l-0.8,1.6Z" class="g1_1" />
<path d="M254.2,236.5c0,0,4.5,7.3,16.3,2.4c8.6,-4.1,20.4,4.9,20.4,4.9c-3.2,24.1,-3.2,24.1,-3.2,24.1c-27,-16.4,-27,-16.4,-27,-16.4c0,0,-2,-1.2,-3.2,-4.4c-1.3,-3.7,-3.3,-10.6,-3.3,-10.6Z" class="g52_1" />
<path d="M288.5,281.3l-4.1,-25.7l-6.9,18.8l6.5,0l3.3,1.2Z" class="g49_1" />
<path d="M284.4,266.7l-3.7,-1.3l-4,-2l-0.4,-3.7l-5.4,-4.9l-1.6,-6.1l-6.5,3.3l2.4,12.2l4.1,15.5l8.2,-1.6Z" class="g49_1" />
<path d="M266.9,259.7l2.4,11l-4.9,1.3L264,260.1Z" class="g49_1" />
<path d="M276.7,260.5l-1.3,-3.6l-4.5,-2.1l4.5,29L290.5,283l-5.3,-17.2Z" class="g49_1" />
<path d="M269.3,260.1c0,0.4,-0.4,1.3,-0.8,1.7c-0.8,0,-1.6,-0.4,-1.6,-0.9c-0.4,-0.8,0,-1.6,0.8,-1.6c0.4,-0.4,1.2,0,1.6,0.8Z" class="g11_1" />
<path d="M288.5,243c-0.8,-0.4,-3.3,-6.1,-3.3,-6.1c-2.8,2.8,-2.8,2.8,-2.8,2.8c-4.5,-3.2,-4.5,-3.2,-4.5,-3.2c-4.5,1.6,-4.5,1.6,-4.5,1.6c-5.7,-1.6,-5.7,-1.6,-5.7,-1.6c0,2.4,0,2.4,0,2.4c-6.2,-1.2,-6.2,-1.2,-6.2,-1.2c0,4.1,0,4.1,0,4.1c12.7,-2.1,12.7,-2.1,12.7,-2.1c13.5,4.1,13.5,4.1,13.5,4.1Z" class="g52_1" />
<path d="M219.5,303.4l34.7,0l13.1,20.8l-33.5,0Z" class="g46_1" />
<path d="M240.7,324.6l0,-7.3l2.1,-1.7l2.4,0l3.3,1.7l2.4,7.3l-7.7,2.5l-2.5,-1.3Z" class="g49_1" />
<path d="M413,356.5l36,0l0,-27.4l-36,0l0,27.4Z" class="g1_1" />
<path d="M453.5,355.6l-35.6,6.2l-4.5,-27.4l35.1,-6.1Z" class="g1_1" />
<path d="M429.4,323l2,36.7l5.3,-2l-0.4,-37.2Z" class="g48_1" />
<path d="M436.3,349.5c4.1,7,4.1,7,4.1,7c0,0,-4.5,7.3,-5.3,7.7c-0.4,0.4,-4.1,0,-4.1,0c-1.2,-3.7,-1.2,-3.7,-1.2,-3.7c1.2,-4,1.2,-4,1.2,-4c0,-5.4,0,-5.4,0,-5.4c4.1,-5.3,4.1,-5.3,4.1,-5.3Z" class="g48_1" />
<path d="M169.3,245.8c0,7,-4.1,12.7,-9,12.7c-4.9,0,-9,-5.7,-9,-12.7c0,-6.9,4.1,-12.6,9,-12.6c4.9,0,9,5.7,9,12.6Z" class="g28_1" />
<path d="M154.6,482.2l58,0.8l7.3,-3.3l-46.1,-1.6Z" class="g3_1" />
<path d="M199.9,472.8l15.5,7.3l-6.5,2.9l-25.7,-1.6l6.5,-11.9Z" class="g4_1" />
<path d="M163.6,471.2l-18.4,12.6l7.3,0.8L177,476.5L172.5,465Z" class="g4_1" />
<path d="M149.3,399.7l-6.2,-59.6l40.1,0.4L195,405.8l5.3,67.4L183.2,476l-3.7,-66.5L168,364.6l-3.6,-5.3l5.3,40l4.1,72.3l-13.5,0Z" class="g29_1" />
<path d="M161.9,271.2l-3.7,-18.8l15.6,11.4l-5.3,4.5l-1.3,3.3Z" class="g53_1" />
<path d="M163.1,262.6l2.1,-3.3l2,-4.1l-2,-3.2l0.4,-7.4l-2.9,-5.7l8.6,-2l5.3,11l4.1,16.3l-4.9,1.6l-1.2,21.3l-10.2,-0.9l-4.1,0.5Z" class="g53_1" />
<path d="M171.7,245.4l6.1,10.2l4.1,-2.4L175,245Z" class="g53_1" />
<path d="M165.2,252.8L164,249.1l1.6,-4.5l14.7,19.6l-18.4,7.4l0,-9Z" class="g53_1" />
<path d="M170.5,247.5c0.4,0.4,1.2,0.8,1.6,0.4c0.8,-0.4,0.8,-0.8,0.8,-1.7c-0.4,-0.8,-1.2,-0.8,-1.6,-0.8c-0.8,0.4,-1.2,1.3,-0.8,2.1Z" class="g11_1" />
<path d="M181.5,280.1l-8.6,-4.5l-20,1.7l12.7,11.8Z" class="g53_1" />
<path d="M196.2,355.6l5.3,-2.4L200.7,323l-1.2,-24.5l-9,0l2.5,25.7Z" class="g53_1" />
<path d="M140.3,347.9L135,345.4l-9.4,-18.7L133.3,294l9,0.4l-9.8,32.3Z" class="g53_1" />
<path d="M191.3,302.6c9.8,2,9.8,2,9.8,2c-4.9,-18.4,-4.9,-18.4,-4.9,-18.4c-2,-5.3,-2,-5.3,-2,-5.3c-2.5,-0.8,-2.5,-0.8,-2.5,-0.8c-13.9,-3.2,-13.9,-3.2,-13.9,-3.2c0,0,0,0.4,0,0.4c0,4.9,-4.4,7.7,-10.6,7.7c-5.7,0,-10.2,-2.8,-10.2,-7.7c0,-0.4,0,-0.8,0,-1.3c-12.6,1.7,-12.6,1.7,-12.6,1.7c-5.8,0.4,-5.8,0.4,-5.8,0.4c-0.8,2,-0.8,2,-0.8,2c-7.3,21.2,-7.3,21.2,-7.3,21.2c11,-0.4,11,-0.4,11,-0.4c1.6,28.2,1.6,28.2,1.6,28.2c-3.6,32.7,-3.6,32.7,-3.6,32.7c51,-9.4,51,-9.4,51,-9.4c-4.1,-23.3,-4.1,-23.3,-4.1,-23.3Z" class="g1_1" />
<path d="M135.8,340.5c-2.9,13.9,-2.9,13.9,-2.9,13.9c0,0,4.1,6.5,4.5,7c0.8,0.8,4.1,0.4,4.1,0.4c1.2,-3.3,1.2,-3.3,1.2,-3.3c-0.8,-4.1,-0.8,-4.1,-0.8,-4.1c0.8,-4.5,0.8,-4.5,0.8,-4.5c-3.6,-6.5,-3.6,-6.5,-3.6,-6.5Z" class="g53_1" />
<path d="M200.3,349.9c3.7,6.6,3.7,6.6,3.7,6.6c0,0,-4.1,6.5,-4.5,6.9c-0.4,0.4,-4.1,0,-4.1,0c-0.8,-3.3,-0.8,-3.3,-0.8,-3.3c0.8,-3.6,0.8,-3.6,0.8,-3.6c0,-5.4,0,-5.4,0,-5.4c3.7,-4.4,3.7,-4.4,3.7,-4.4Z" class="g53_1" />
<path d="M175,235.2c0,2.5,-2.1,4.5,-4.5,4.5c-2.5,0,-4.5,-2,-4.5,-4.5c0,-2.4,2,-4.1,4.5,-4.1c2.4,0,4.5,1.7,4.5,4.1Z" class="g28_1" />
<path d="M169.3,233.6c0,2.4,-2.1,4.5,-4.5,4.5c-2.5,0,-4.5,-2.1,-4.5,-4.5c0,-2.5,2,-4.5,4.5,-4.5c2.4,0,4.5,2,4.5,4.5Z" class="g28_1" />
<path d="M162.7,233.6c0,2.4,-2,4.5,-4.5,4.5c-2.4,0,-4.4,-2.1,-4.4,-4.5c0,-2.5,2,-4.5,4.4,-4.5c2.5,0,4.5,2,4.5,4.5Z" class="g28_1" />
<path d="M157.4,235.2c0,2.5,-2,4.5,-4.5,4.5c-2.4,0,-4.5,-2,-4.5,-4.5c0,-2.4,2.1,-4.1,4.5,-4.1c2.5,0,4.5,1.7,4.5,4.1Z" class="g28_1" />
<path d="M153.3,239.7c0,2.5,-2,4.5,-4.4,4.5c-2.5,0,-4.5,-2,-4.5,-4.5c0,-2.4,2,-4.5,4.5,-4.5c2.4,0,4.4,2.1,4.4,4.5Z" class="g28_1" />
<path d="M154.6,245.4c0,2.5,-2.1,4.5,-4.5,4.5c-2.5,0,-4.5,-2,-4.5,-4.5c0,-2.4,2,-4.5,4.5,-4.5c2.4,0,4.5,2.1,4.5,4.5Z" class="g28_1" />
<path d="M155.8,250.3c0,2.5,-2,4.5,-4.5,4.5c-2.4,0,-4.5,-2,-4.5,-4.5c0,-2.4,2.1,-4.5,4.5,-4.5c2.5,0,4.5,2.1,4.5,4.5Z" class="g28_1" />
<path d="M159.1,253.6c0,2.4,-2.1,4.5,-4.5,4.5c-2.5,0,-4.5,-2.1,-4.5,-4.5c0,-2.5,2,-4.5,4.5,-4.5c2.4,0,4.5,2,4.5,4.5Z" class="g28_1" />
<path d="M178.3,258.9c-11.1,-0.8,-11.1,-0.8,-11.1,-0.8c0,0,1.7,4.9,5.7,4.9c3.7,0,5.4,-4.1,5.4,-4.1Z" class="g1_1" />
<path d="M331,268.6l1.6,37.2l-2.3,-0.5l20.4,-37.6l2.2,1.2l-20.5,37.5l-2.3,-0.5l-1.6,-37.1Z" class="g5_1" />
<path d="M335.5,319.3l-16.4,-6.1l4.1,-10.6l15.9,5.7Z" class="g6_1" />
<path d="M331,315.6c-6.6,-2.4,-6.6,-2.4,-6.6,-2.4c-1.2,-0.4,-2,-2.1,-1.6,-3.7c0.4,-1.2,2,-2,3.3,-1.6c1.2,-1.2,2.8,-1.6,4,-1.2c1.3,0.4,2.5,1.6,2.5,2.8c0.4,0,0.4,0,0.4,0c1.6,0.8,2.5,2.5,1.6,4.1c-0.4,1.6,-2,2.4,-3.6,2Zm-4.9,-7.3c-1.3,-0.4,-2.5,0.4,-2.9,1.6c-0.4,1.2,0.4,2.5,1.2,2.9c6.6,2,6.6,2,6.6,2c1.2,0.4,2.8,0,3.2,-1.6c0.4,-1.2,0,-2.5,-1.2,-2.9c-0.4,-0.4,-0.4,-0.4,-0.4,-0.4c-0.4,0,-0.4,0,-0.4,0c0,-1.2,-0.8,-2.4,-2.1,-2.8c-1.2,-0.4,-2.8,0,-3.6,1.2c-0.4,0,-0.4,0,-0.4,0Z" class="g1_1" />
<path d="M329.3,310.3l-0.4,0c0,0,-0.4,0,0,-0.4c0.4,-1.6,0.4,-1.6,0.4,-1.6c0,0,0.4,0,0.4,0c0,0,0.4,0.4,0.4,0.4Z" class="g1_1" />
<path d="M330.1,309.1c0,0.4,0,0.4,0,0.4c0,0.4,0.4,1.2,0,1.6c0,0.9,-0.8,1.3,-1.6,0.9c-0.8,-0.4,-1.2,-1.3,-0.8,-1.7c0,-0.8,0.4,-1.2,0.8,-1.2c0.4,-0.4,0.4,-0.4,0.4,-0.4c-0.8,0,-1.6,0.4,-2,1.2c0,1.2,0.4,2.1,1.2,2.5c1.2,0.4,2.4,0,2.9,-1.3c0,-0.8,0,-1.6,-0.9,-2Z" class="g1_1" />
<path d="M404.5,258.5c8.5,-2.9,8.5,-2.9,8.5,-2.9c0,0,0.8,5.3,-2.8,5.8c-3.7,0.8,-5.7,-2.9,-5.7,-2.9Z" class="g1_1" />
<path d="M327.7,223.8c0,-0.4,4.1,-6.1,4.1,-6.1c1.2,3.2,1.2,3.2,1.2,3.2c0,0,6.1,-4,6.1,-3.6c0,0.4,0,5.7,0,5.7c4.5,-3.7,4.5,-3.7,4.5,-3.7c1.3,4.5,1.3,4.5,1.3,4.5c3.6,-2.9,3.6,-2.9,3.6,-2.9c-1.6,7,-1.6,7,-1.6,7c-19.2,1.2,-19.2,1.2,-19.2,1.2Z" class="g42_1" />
<path d="M172.9,239.3c0,0,7,-1.2,7.4,-4.9c0.8,-3.3,0.8,-3.3,0.8,-3.3c-3.7,-2.8,-3.7,-2.8,-3.7,-2.8c-4,1.2,-4,1.2,-4,1.2c-2.1,-5.3,-2.1,-5.3,-2.1,-5.3c-2,4.5,-2,4.5,-2,4.5c-4.9,-4.5,-4.9,-4.5,-4.9,-4.5c-2.5,4.5,-2.5,4.5,-2.5,4.5c-6.9,0,-6.9,0,-6.9,0c-0.8,2.9,-0.8,2.9,-0.8,2.9Z" class="g28_1" />
<path d="M336.3,254l4.5,0.4l-2.1,1.2Z" class="g54_1" />
<path d="M239.1,480.5c0.4,3.3,0.4,3.3,0.4,3.3c0,0,2.5,2.5,4.5,2.5c1.6,-0.5,24.9,-4.1,24.9,-4.1c0.4,-1.7,0.4,-1.7,0.4,-1.7C244,483.8,244,483.8,244,483.8Z" class="g1_1" />
<path d="M286,483c0,3.3,0,3.3,0,3.3c0,0,2.5,2.4,4.5,2.4c1.7,-0.4,25.4,-3.3,25.4,-3.3c0.4,-2.8,0.4,-2.8,0.4,-2.8c-25.8,3.7,-25.8,3.7,-25.8,3.7Z" class="g1_1" />
<path d="M292.6,314.4C273,315.6,273,315.6,273,315.6c-4.1,0,-7.8,-3.2,-7.8,-7.7c-0.4,-4.5,2.5,-8.2,6.6,-8.6c1.6,-4.1,5.3,-7.3,9.8,-7.3c3.6,-0.4,7.3,1.6,9.3,4.9c0.5,0,0.9,0,0.9,0c4.9,0,8.5,3.6,9,8.5c0,4.9,-3.3,9,-8.2,9ZM272.2,300.9c-3.3,0,-5.7,3.3,-5.7,7c0.4,3.2,3.2,6.1,6.5,6.1c19.6,-0.8,19.6,-0.8,19.6,-0.8c3.7,-0.4,6.5,-3.7,6.5,-7.8c-0.4,-4.1,-3.3,-6.9,-6.9,-6.9c-0.4,0,-0.8,0,-1.3,0c-0.8,0.4,-0.8,0.4,-0.8,0.4c0,-0.8,0,-0.8,0,-0.8c-2,-2.9,-5.3,-4.9,-8.5,-4.5c-3.7,0,-7.4,2.9,-8.6,6.9c0,0.4,0,0.4,0,0.4c-0.8,0,-0.8,0,-0.8,0Z" class="g1_1" />
<path d="M283.2,302.2c0,0.8,-0.4,1.2,-1.2,1.2c-0.4,0,-0.9,-0.4,-0.9,-0.8c-0.4,-4.5,-0.4,-4.5,-0.4,-4.5c0,-0.8,0.4,-1.2,1.3,-1.2c0.4,0,0.8,0.4,0.8,0.8Z" class="g1_1" />
<path d="M283.6,298.5c0,1.6,0,1.6,0,1.6c1.6,0.8,2.4,2.1,2.4,3.7c0,2,-1.6,4.1,-3.6,4.1c-2.5,0,-4.1,-1.6,-4.5,-3.7c0,-1.6,0.8,-2.9,2,-3.7c0,-2,0,-2,0,-2c-2,1.2,-3.6,3.3,-3.2,5.7c0,2.9,2.4,5.3,5.7,5.3c3.2,0,5.3,-2.8,5.3,-5.7c0,-2.5,-1.7,-4.5,-4.1,-5.3Z" class="g1_1" />
<path d="M156.8,277.8l11,35.9l-2,0L177.3,277l1.9,0.6l-11.4,36.7l-2,0l-11,-35.9Z" class="g5_1" />
<path d="M176.2,323l-16.7,1.6l-0.8,-11.4L175,312.4Z" class="g6_1" />
<path d="M170.9,321.8c-6.9,0.4,-6.9,0.4,-6.9,0.4c-1.3,0.4,-2.9,-0.8,-2.9,-2.5c0,-1.2,0.8,-2.8,2.5,-2.8c0.4,-1.7,1.6,-2.5,2.8,-2.9c1.6,0,2.9,0.4,3.7,1.6c1.6,0,3.3,1.3,3.3,2.9c0,1.6,-1.3,3.3,-2.5,3.3Zm-7.3,-4.5c-1.3,0,-2.1,1.2,-2.1,2.4c0.4,1.2,1.2,2.1,2.5,2.1c6.5,-0.4,6.5,-0.4,6.5,-0.4c1.6,-0.5,2.4,-1.7,2.4,-2.9c-0.4,-1.2,-1.2,-2.5,-2.8,-2.5c0,0,0,0.5,-0.4,0.5c0,-0.5,0,-0.5,0,-0.5c-0.8,-0.8,-2.1,-1.6,-2.9,-1.2c-1.6,0,-2.4,0.8,-2.8,2.5c-0.4,0,-0.4,0,-0.4,0Z" class="g1_1" />
<path d="M167.2,317.7c0,0,0,0.4,-0.4,0.4c0,0,-0.4,0,-0.4,-0.4c0,-1.7,0,-1.7,0,-1.7c0,0,0,-0.4,0.4,-0.4c0,0,0.4,0.4,0.4,0.4Z" class="g1_1" />
<path d="M167.6,316.5c0,0.4,0,0.4,0,0.4c0.4,0.4,0.9,0.8,0.9,1.2c0,0.8,-0.9,1.6,-1.3,1.6c-0.8,0,-1.6,-0.8,-1.6,-1.2c0,-0.8,0.4,-1.2,0.8,-1.6C166,316.5,166,316.5,166,316.5c-0.4,0.4,-0.8,1.2,-0.8,2c0,0.8,0.8,1.6,2,1.6c0.8,0,1.7,-1.2,1.7,-2c0,-0.8,-0.9,-1.6,-1.3,-1.6Z" class="g1_1" />
<image preserveAspectRatio="none" x="670" y="515" width="348" height="161" xlink:href="1/img/6.png" />
<g clip-path="url(#c0_1)">
<g fill="#34454E" >
<use xlink:href="#f2_1n" transform="matrix(18,0,0,18,60.4,168.6)" />
<use xlink:href="#f2_21" transform="matrix(18,0,0,18,85.8,168.6)" />
<use xlink:href="#f2_53" transform="matrix(18,0,0,18,101.1,168.6)" />
<use xlink:href="#f2_2e" transform="matrix(18,0,0,18,107.1,168.6)" />
<use xlink:href="#f2_21" transform="matrix(18,0,0,18,116.3,168.6)" />
<use xlink:href="#f2_24" transform="matrix(18,0,0,18,139.3,168.6)" />
<use xlink:href="#f2_25" transform="matrix(18,0,0,18,154.6,168.6)" />
<use xlink:href="#f2_2e" transform="matrix(18,0,0,18,160.6,168.6)" />
<use xlink:href="#f2_25" transform="matrix(18,0,0,18,169.7,168.6)" />
<use xlink:href="#f2_2a" transform="matrix(18,0,0,18,175.9,168.6)" />
<use xlink:href="#f2_23" transform="matrix(18,0,0,18,191,168.6)" />
<use xlink:href="#f1_1j" transform="matrix(18,0,0,18,214.2,168.6)" />
</g>
</g>
<text 
x="60" 
y="168" 
dx="0,-0.5,0,-0.1,0,0,0.1,0,-0.1,0,0,-0.1,0" 
class="s4_1"
>Were hiring </text>

<g clip-path="url(#c0_1)">
<g fill="#34454E" >
<use xlink:href="#f1_21" transform="matrix(18,0,0,18,232.5,168.6)" />
<use xlink:href="#f1_2a" transform="matrix(18,0,0,18,247.7,168.6)" />
<use xlink:href="#f1_25" transform="matrix(18,0,0,18,264.5,168.6)" />
<use xlink:href="#f1_2b" transform="matrix(18,0,0,18,272.2,168.6)" />
<use xlink:href="#f1_2e" transform="matrix(18,0,0,18,289,168.6)" />
<use xlink:href="#f1_1x" transform="matrix(18,0,0,18,307.3,168.6)" />
<use xlink:href="#f1_2a" transform="matrix(18,0,0,18,322.5,168.6)" />
<use xlink:href="#f1_20" transform="matrix(18,0,0,18,339.3,168.6)" />
<use xlink:href="#f1_1a" transform="matrix(18,0,0,18,363.9,168.6)" />
<use xlink:href="#f1_2h" transform="matrix(18,0,0,18,379.2,168.6)" />
<use xlink:href="#f1_2a" transform="matrix(18,0,0,18,396,168.6)" />
<use xlink:href="#f1_25" transform="matrix(18,0,0,18,412.8,168.6)" />
<use xlink:href="#f1_2b" transform="matrix(18,0,0,18,420.5,168.6)" />
<use xlink:href="#f1_2e" transform="matrix(18,0,0,18,437.3,168.6)" />
<use xlink:href="#f1_1j" transform="matrix(18,0,0,18,455.5,168.6)" />
<use xlink:href="#f1_1i" transform="matrix(18,0,0,18,473.8,168.6)" />
<use xlink:href="#f1_15" transform="matrix(18,0,0,18,493.7,168.6)" />
<use xlink:href="#f1_2f" transform="matrix(18,0,0,18,512,168.6)" />
<use xlink:href="#f0_u" transform="matrix(18,0,0,18,527.4,168.6)" />
</g>
</g>
<text 
x="214" 
y="168" 
dx="0,0,-0.1,0,0.1,0,0,-0.1,0,0,0,0.1,0,0,0,0.1,0,0,-0.1,0,0,0" 
class="s2_1"
>Senior and Junior SREs</text>

<g clip-path="url(#c0_1)">
<g fill="#34454E" >
<use xlink:href="#f0_18" transform="matrix(18,0,0,18,542.7,168.6)" />
<use xlink:href="#f0_2b" transform="matrix(18,0,0,18,562.6,168.6)" />
<use xlink:href="#f0_29" transform="matrix(18,0,0,18,577.8,168.6)" />
<use xlink:href="#f0_21" transform="matrix(18,0,0,18,600.7,168.6)" />
<use xlink:href="#f0_2j" transform="matrix(18,0,0,18,623.6,168.6)" />
<use xlink:href="#f0_2b" transform="matrix(18,0,0,18,642.8,168.6)" />
<use xlink:href="#f0_2e" transform="matrix(18,0,0,18,658.1,168.6)" />
<use xlink:href="#f0_27" transform="matrix(18,0,0,18,667.3,168.6)" />
<use xlink:href="#f0_25" transform="matrix(18,0,0,18,681,168.6)" />
<use xlink:href="#f0_2a" transform="matrix(18,0,0,18,687,168.6)" />
<use xlink:href="#f0_23" transform="matrix(18,0,0,18,702.3,168.6)" />
<use xlink:href="#f0_2b" transform="matrix(18,0,0,18,726.1,168.6)" />
<use xlink:href="#f0_2e" transform="matrix(18,0,0,18,741.4,168.6)" />
<use xlink:href="#f0_1x" transform="matrix(18,0,0,18,758.2,168.6)" />
<use xlink:href="#f0_2a" transform="matrix(18,0,0,18,773.4,168.6)" />
<use xlink:href="#f0_2l" transform="matrix(18,0,0,18,788.7,168.6)" />
<use xlink:href="#f0_1l" transform="matrix(18,0,0,18,810,168.6)" />
<use xlink:href="#f0_1b" transform="matrix(18,0,0,18,829.8,168.6)" />
<use xlink:href="#f0_2b" transform="matrix(18,0,0,18,855.8,168.6)" />
<use xlink:href="#f0_22" transform="matrix(18,0,0,18,871,168.6)" />
<use xlink:href="#f0_22" transform="matrix(18,0,0,18,878.2,168.6)" />
<use xlink:href="#f0_25" transform="matrix(18,0,0,18,885.8,168.6)" />
<use xlink:href="#f0_1z" transform="matrix(18,0,0,18,891.9,168.6)" />
<use xlink:href="#f0_21" transform="matrix(18,0,0,18,905.7,168.6)" />
</g>
</g>
<text 
x="527" 
y="168" 
dx="0,0,0.1,0,-0.1,0,0,0,-0.6,0,0,0,-0.1,0,-0.1,0.9,0,0,0,-0.1,0,-0.4,0.4,0,0,0,-0.1,-0.5,0,0,0" 
class="s1_1"
>: Home working or any UK office</text>

<image preserveAspectRatio="none" x="50" y="728" width="272" height="63" xlink:href="1/img/7.png" />

<defs>
	<path d="M514.7,-14.6c0,0,-384.2,0,-445.3,267l138,27.6c0,0,23.9,-94.6,101.4,-138.9c0,0,77.6,-44.3,211.1,-44.3c0,0,138.1,0,213,47.3c0,0,75,47.2,75,138.8c0,0,0,51.5,-23.5,83.5c0,0,-23.5,32.1,-66,53c0,0,-42.5,20.9,-101.5,35c0,0,-58.9,14.2,-130.5,30.6c0,0,-124.6,27.6,-189.1,55.2c0,0,-64.6,27.6,-101.9,61.5c0,0,-37.2,34,-57,79.5c0,0,-19.8,45.5,-19.8,104.4c0,0,0,135,103.3,208.1c0,0,103.3,73.1,295.8,73.1c0,0,179,0,273.8,-54.9c0,0,94.7,-54.9,132.8,-187L784,800.3c0,0,-23.1,83.6,-88,121.2c0,0,-64.9,37.7,-179.8,37.7c0,0,-126.1,0,-192.4,-41.7c0,0,-66.4,-41.7,-66.4,-124.5c0,0,0,-48.5,25.7,-80.1c0,0,25.7,-31.7,74.2,-53.7c0,0,48.5,-22,193.2,-54.1c0,0,48.5,-11.2,96.6,-22.7c0,0,48.2,-11.6,92.2,-27.6c0,0,44,-16.1,82.4,-37.7c0,0,38.4,-21.6,66.8,-53c0,0,28.3,-31.3,44.3,-73.8c0,0,16.1,-42.5,16.1,-99.9c0,0,0,-145.5,-113.8,-225.3c0,0,-113.7,-79.7,-320.4,-79.7Z" 
	id="f0_1j"
	transform="scale(0.001,-0.001)" />

	<path d="M339.4,87c0,0,73.9,0,131.3,33.5c0,0,57.5,33.5,90.7,92c0,0,33.2,58.4,33.2,120.2l0,66.2L447.6,396c0,0,-94.7,-1.5,-143.6,-19.4c0,0,-48.9,-17.8,-75,-55.1c0,0,-26.1,-37.2,-26.1,-97.5c0,0,0,-65.5,35.4,-101.2c0,0,35.5,-35.8,101.1,-35.8ZM308.8,-14.6c0,0,-121.6,0,-182.7,64.1c0,0,-61.2,64.2,-61.2,176.1c0,0,0,125.4,82.4,192.6c0,0,82.5,67.1,266,71.6l181.3,3l0,44.1c0,0,0,98.6,-41.8,141.2c0,0,-41.8,42.5,-131.3,42.5c0,0,-90.3,0,-131.3,-30.7c0,0,-41,-30.8,-49.3,-98.3L100.7,604.2c0,0,34.3,218.1,323.8,218.1c0,0,152.1,0,229,-69.8c0,0,76.8,-69.9,76.8,-202.1l0,-348c0,0,0,-59.8,15.7,-90c0,0,15.7,-30.3,59.7,-30.3c0,0,19.4,0,44,5.3l0,-83.3C849.7,4.1,799,-7.7,746,-7.7c0,0,-74.6,0,-108.5,39.2c0,0,-34,39.3,-38.5,123.2l-4.4,0c0,0,-51.5,-92.5,-119.8,-130.9c0,0,-68.2,-38.4,-166,-38.4Z" 
	id="f0_1x"
	transform="scale(0.001,-0.001)" />

	<path d="M142.5,-316.7c0,0,-55.2,0,-92.5,8.2l0,100.9c0,0,28.3,-4.5,62.6,-4.5c0,0,125.4,0,198.5,184.3l12.7,32L3.7,807.6l143.3,0L317,361.5c0,0,3.8,-10.4,9,-24.9c0,0,5.2,-14.6,33.6,-97.4c0,0,28.3,-82.8,30.5,-92.5l52.3,147L619.2,807.6l141.7,0L450.6,0.3c0,0,-50,-129,-93.3,-192c0,0,-43.2,-63.1,-95.8,-94c0,0,-52.6,-31,-119,-31Z" 
	id="f0_2l"
	transform="scale(0.001,-0.001)" />

	<path d="M615.4,0l0,512c0,0,0,85,-15.6,126.4c0,0,-15.7,41.5,-51.5,60.9c0,0,-35.8,19.4,-99.2,19.4c0,0,-94.8,0,-151.8,-65.7c0,0,-57.1,-65.6,-57.1,-176.8l0,-475.9l-134.3,0l0,1106.5l134.3,0l0,-287.7c0,0,0,-45.4,-2.6,-93.9c0,0,-2.6,-48.4,-3.4,-55.9l2.3,0c0,0,43.3,79.1,104,116.1c0,0,60.8,36.9,154.1,36.9c0,0,131.3,0,193.6,-65.3c0,0,62.3,-65.3,62.3,-219l0,-538Z" 
	id="f0_24"
	transform="scale(0.001,-0.001)" />

	<path d="M102.2,0l0,807.6l134.3,0L236.5,0Zm0,978.8l0,128l134.3,0l0,-128Z" 
	id="f0_25"
	transform="scale(0.001,-0.001)" />

	<path d="M277.5,-11.6c0,0,-161.1,0,-161.1,182.7l0,538.8l-93.3,0l0,97.7l98.5,0l39.5,180.9l89.5,0l0,-180.9l149.3,0l0,-97.7l-149.3,0l0,-509.8c0,0,0,-58.2,19.1,-81.7c0,0,19,-23.5,66,-23.5c0,0,26.8,0,77.6,10.4l0,-99.1c0,0,-66.4,-17.8,-135.8,-17.8Z" 
	id="f0_2g"
	transform="scale(0.001,-0.001)" />

	<path d="M420,84.1c0,0,120.8,0,172.7,77.7c0,0,51.8,77.7,51.8,242.8c0,0,0,167.3,-49.6,243.1c0,0,-49.6,75.9,-166.7,75.9c0,0,-117.9,0,-170.4,-77.3c0,0,-52.6,-77.4,-52.6,-241.7c0,0,0,-159.9,51.8,-240.2c0,0,51.8,-80.3,163,-80.3Zm1.5,-98.7c0,0,-176.8,0,-267.1,107.7c0,0,-90.2,107.8,-90.2,311.5c0,0,0,417.7,361.8,417.7c0,0,185,0,272.2,-101.8c0,0,87.3,-101.8,87.3,-315.9c0,0,0,-211.9,-93.2,-315.6C692.3,89,599,-14.6,421.5,-14.6Z" 
	id="f0_2b"
	transform="scale(0.001,-0.001)" />

	<path d="M590.1,-14.6c0,0,-158.9,0,-274.9,65.9c0,0,-116,66,-176.8,188.7c0,0,-60.8,122.7,-60.8,290.5c0,0,0,251.4,135.8,393.8c0,0,135.7,142.5,375.9,142.5c0,0,167.9,0,280.5,-65.7c0,0,112.7,-65.6,165.6,-194.7l-135,-44.7c0,0,-36.5,92.2,-117.5,140.9c0,0,-80.9,48.8,-192.1,48.8c0,0,-174.5,0,-271.5,-112.3c0,0,-97,-112.4,-97,-308c0,0,0,-193.3,101.1,-310.9c0,0,101.1,-117.5,273.4,-117.5c0,0,220.8,0,332,218l116.3,-58.1c0,0,-64.9,-135.7,-182.4,-206.5c0,0,-117.5,-70.7,-272.6,-70.7Z" 
	id="f0_13"
	transform="scale(0.001,-0.001)" />

	<path d="M105.9,0l0,619.5c0,0,0,85.1,-4.4,188.1l126.8,0c0,0,5.9,-137.4,5.9,-165.1l3,0c0,0,32.1,103.7,73.9,141.8c0,0,41.8,38,117.8,38c0,0,26.9,0,54.5,-7.5l0,-123c0,0,-26.9,7.4,-71.6,7.4c0,0,-83.6,0,-127.6,-72c0,0,-44,-72,-44,-206.3L240.2,0Z" 
	id="f0_2e"
	transform="scale(0.001,-0.001)" />

	<path d="M102.9,0l0,1106.8l134.3,0L237.2,0Z" 
	id="f0_28"
	transform="scale(0.001,-0.001)" />

	<path d="M643,478.1c0,0,-11.2,128,-64.9,186.7c0,0,-53.7,58.8,-154.4,58.8c0,0,-97.7,0,-154.8,-65.5c0,0,-57,-65.5,-61.5,-180ZM431.2,-14.6c0,0,-179.1,0,-272.7,106.6c0,0,-93.6,106.7,-93.6,317c0,0,0,200,93.6,306.6c0,0,93.6,106.7,267.5,106.7c0,0,355.8,0,355.8,-428.9l0,-17.9l-575.9,0c0,0,0,-138.3,57.4,-213.4c0,0,57.5,-75.1,167.9,-75.1c0,0,87.3,0,139.9,34.9c0,0,52.5,34.9,71.2,88.3L760.2,176.6c0,0,-72.4,-191.2,-329,-191.2Z" 
	id="f0_21"
	transform="scale(0.001,-0.001)" />

	<path d="M105.9,0l0,635.2c0,0,0,141.1,-4.4,172.4l126.8,0c0,0,0.7,-3.7,1.5,-20.2c0,0,0.7,-16.4,1.8,-37.7c0,0,1.1,-21.3,2.6,-80.4l2.3,0c0,0,46.2,83.6,107,118.3c0,0,60.8,34.7,151.1,34.7c0,0,132.8,0,194.3,-66c0,0,61.6,-66.1,61.6,-218.3l0,-538L615.4,0l0,512c0,0,0,79.8,-15.6,123.8c0,0,-15.7,44.1,-50,63.5c0,0,-34.3,19.4,-100.7,19.4c0,0,-97,0,-152.9,-66.4c0,0,-56,-66.5,-56,-184.4L240.2,0Z" 
	id="f0_2a"
	transform="scale(0.001,-0.001)" />

	<path d="M395.4,89c0,0,114.1,0,165.6,79.1c0,0,51.5,79.2,51.5,245.6c0,0,0,160.6,-51.5,235.2c0,0,-51.5,74.7,-164.1,74.7c0,0,-101.5,0,-146.6,-75.1c0,0,-45.1,-75,-45.1,-243.7c0,0,0,-169.5,44.7,-242.6c0,0,44.8,-73.2,145.5,-73.2ZM361.1,-14.6c0,0,-153,0,-225,102.9c0,0,-71.9,102.9,-71.9,311.8c0,0,0,422.2,296.9,422.2c0,0,91.7,0,152.9,-33.6c0,0,61.1,-33.5,98.5,-106.6l1.5,0l-1.5,90.1l0,334.6l134.2,0l0,-940.5c0,0,0,-126,4.5,-166.3L622.9,0c0,0,-2.2,11.9,-4.9,55.3c0,0,-2.6,43.3,-2.6,74.8l-2.9,0c0,0,-37.4,-77.6,-98.9,-111.2c0,0,-61.5,-33.5,-152.5,-33.5Z" 
	id="f0_20"
	transform="scale(0.001,-0.001)" />

	<path d="M381.2,-14.6c0,0,-150.7,0,-232.4,49.6c0,0,-81.7,49.6,-106.3,154.7l118.6,23.2c0,0,17.2,-65.2,70.9,-95.5c0,0,53.7,-30.4,149.2,-30.4c0,0,102.2,0,149.6,31.4c0,0,47.3,31.4,47.3,94.3c0,0,0,47.7,-32.8,77.5c0,0,-32.8,29.8,-105.9,49.2l-96.2,25.3c0,0,-115.7,29.8,-164.5,58.5c0,0,-48.9,28.7,-76.5,69.7c0,0,-27.6,41,-27.6,100.6c0,0,0,110.3,78.7,168.1c0,0,78.7,57.8,229.4,57.8c0,0,133.5,0,212.2,-47c0,0,78.7,-47,99.6,-150.7L573.7,606.8c0,0,-11.2,53.6,-60.1,82.2c0,0,-48.8,28.7,-130.9,28.7c0,0,-91,0,-134.3,-27.5c0,0,-43.2,-27.5,-43.2,-83.2c0,0,0,-34.3,17.8,-56.7c0,0,17.9,-22.4,53,-38c0,0,35.1,-15.6,147.7,-43.2c0,0,106.7,-26.9,153.7,-49.6c0,0,47,-22.7,74.2,-50.3c0,0,27.3,-27.6,42.2,-63.7c0,0,14.9,-36.2,14.9,-82.4c0,0,0,-114,-86.2,-175.9c0,0,-86.1,-61.8,-241.3,-61.8Z" 
	id="f0_2f"
	transform="scale(0.001,-0.001)" />

	<path d="M137.3,-195.4c0,0,70.1,101.5,70.1,195.4L141.7,0l0,163.3l145.5,0L287.2,38c0,0,0,-79,-14.2,-132c0,0,-14.1,-52.9,-44,-101.4Z" 
	id="f0_g"
	transform="scale(0.001,-0.001)" />

	<path d="M452.8,84.1c0,0,100,0,145.9,73.6c0,0,45.8,73.6,45.8,247c0,0,0,169,-45.5,241.5c0,0,-45.5,72.5,-144.7,72.5c0,0,-79.8,0,-124.9,-33.7c0,0,-45.2,-33.6,-68.7,-105c0,0,-23.5,-71.4,-23.5,-185.7c0,0,0,-159.2,50.7,-234.7c0,0,50.8,-75.5,164.9,-75.5ZM102.9,-316.7l0,959.4c0,0,0,124.6,-4.4,164.9l129.8,0c0,0,0.7,-2.9,2.2,-21.2c0,0,1.5,-18.2,3.4,-56.1c0,0,1.8,-38,1.8,-52.1l3,0c0,0,35.8,74.7,94.8,109.4c0,0,58.9,34.7,155.1,34.7c0,0,149.2,0,223.1,-100c0,0,73.8,-100.1,73.8,-314.4c0,0,0,-422.5,-296.9,-422.5c0,0,-186.5,0,-250.6,140.3l-3.8,0c0,0,3,-6,3,-126.7l0,-315.7Z" 
	id="f0_2c"
	transform="scale(0.001,-0.001)" />

	<path d="M397.6,92.9c0,0,63.4,0,112.6,37.3c0,0,49.3,37.3,76.1,107.1c0,0,26.9,69.7,26.9,166c0,0,0,98.5,-26.9,169.7c0,0,-26.8,71.3,-75.7,109c0,0,-48.8,37.7,-110.7,37.7c0,0,-103,0,-150,-74.7c0,0,-47,-74.6,-47,-241.7c0,0,0,-165.7,44,-238c0,0,44,-72.4,150.7,-72.4Zm11.2,-409.6c0,0,-132,0,-210.4,51.9c0,0,-78.3,51.8,-100.7,147.3l135,19.4c0,0,13.5,-56.2,59.4,-86.5c0,0,45.8,-30.4,120.4,-30.4c0,0,200.7,0,200.7,235l0,129.9l-1.5,0c0,0,-38,-77.5,-104.4,-116.6c0,0,-66.4,-39.1,-155.2,-39.1c0,0,-148.4,0,-218.2,98.3c0,0,-69.7,98.4,-69.7,309.4c0,0,0,214,74.9,315.7c0,0,75,101.8,227.9,101.8c0,0,85.8,0,148.9,-39.2c0,0,63,-39.1,97.3,-111.4l1.5,0c0,0,0,22.5,3,78c0,0,3,55.6,5.9,60.8l127.6,0c0,0,-4.5,-40.3,-4.5,-167.1l0,-617.1c0,0,0,-340.1,-337.9,-340.1Z" 
	id="f0_23"
	transform="scale(0.001,-0.001)" />

	<path d="M105.9,0l0,635.2c0,0,0,141.1,-4.4,172.4l126.8,0c0,0,0.7,-3.7,1.5,-20.2c0,0,0.7,-16.4,1.8,-37.7c0,0,1.1,-21.3,2.6,-80.4l2.3,0c0,0,43.3,85.8,99.2,119.4c0,0,55.9,33.6,136.5,33.6c0,0,91.8,0,145.1,-36.6c0,0,53.3,-36.5,74.2,-116.4l2.3,0c0,0,41.7,81.4,101,117.2c0,0,59.4,35.8,143.7,35.8c0,0,122.3,0,177.9,-66.4c0,0,55.5,-66.4,55.5,-217.9l0,-538L1039.2,0l0,512c0,0,0,117.1,-32.1,161.9c0,0,-32.1,44.8,-115.6,44.8c0,0,-88.1,0,-136.9,-65.3c0,0,-48.9,-65.3,-48.9,-185.5L705.7,0L572.9,0l0,512c0,0,0,117.1,-32.1,161.9c0,0,-32,44.8,-115.6,44.8c0,0,-85.8,0,-135.7,-65.7c0,0,-50,-65.7,-50,-185.1L239.5,0Z" 
	id="f0_29"
	transform="scale(0.001,-0.001)" />

	<path d="M135,0l0,709.9l-113.4,0l0,97.7l113.4,0l0,91c0,0,0,110.3,48.5,158.8c0,0,48.5,48.5,148.5,48.5c0,0,55.9,0,94.7,-9l0,-102.6c0,0,-33.6,6,-59.7,6c0,0,-51.5,0,-74.6,-26.1c0,0,-23.1,-26,-23.1,-94.4l0,-72.2l157.4,0l0,-97.7l-157.4,0L269.3,0Z" 
	id="f0_22"
	transform="scale(0.001,-0.001)" />

	<path d="M508.8,170.1c0,0,141.7,0,225.3,97.7c0,0,83.5,97.8,83.5,265.6c0,0,0,169.3,-88,258.4c0,0,-88.1,89.2,-251.4,89.2l-155.9,0l0,-710.9ZM102.2,0l0,1051.1l380.5,0c0,0,265.5,0,411,-133.9c0,0,145.5,-133.9,145.5,-383.8c0,0,0,-162.6,-63.8,-283.9c0,0,-63.8,-121.2,-180.5,-185.3C794.9,64.2,678.1,0,527.4,0Z" 
	id="f1_14"
	transform="scale(0.001,-0.001)" />

	<path d="M594.6,494.8c0,0,-6,98.2,-47,147.4c0,0,-41.1,49.1,-110.5,49.1c0,0,-73.8,0,-113.7,-51.8c0,0,-39.9,-51.7,-42.2,-144.7ZM437.1,-14.6c0,0,-182,0,-279.7,107.7c0,0,-97.7,107.8,-97.7,314.4c0,0,0,200,99.2,307.4c0,0,99.2,107.4,281.2,107.4c0,0,173.9,0,265.6,-115.2c0,0,91.8,-115.2,91.8,-337.4l0,-6l-517.7,0c0,0,0,-118.1,43.6,-178.3c0,0,43.6,-60.2,124.2,-60.2c0,0,111.1,0,140.2,96.8L785.5,204.8c0,0,-85.8,-219.4,-348.4,-219.4Z" 
	id="f1_21"
	transform="scale(0.001,-0.001)" />

	<path d="M294.7,0L6,807.6l221.5,0l141,-451.3c0,0,11.2,-37.3,53,-186.5c0,0,7.4,30.6,30.6,107.4c0,0,23.1,76.9,171.5,530.4l219.4,0L545.3,0Z" 
	id="f1_2i"
	transform="scale(0.001,-0.001)" />

	<path d="M591.6,158.4c0,0,147.7,0,227.9,97c0,0,80.2,96.9,80.2,275.1c0,0,0,170.1,-80.6,266.6c0,0,-80.6,96.6,-226,96.6c0,0,-147.8,0,-228.3,-95.8c0,0,-80.6,-95.9,-80.6,-267.4c0,0,0,-173,82.5,-272.5c0,0,82.4,-99.6,224.9,-99.6Zm0,-173c0,0,-247.7,0,-388.3,145.7c0,0,-140.6,145.8,-140.6,399.4c0,0,0,252.9,140.2,394.6c0,0,140.3,141.7,390.2,141.7c0,0,249.9,0,390.5,-143.2c0,0,140.6,-143.2,140.6,-393.1c0,0,0,-164,-64.9,-288.6c0,0,-64.9,-124.6,-185.7,-190.6c0,0,-120.9,-65.9,-282,-65.9Z" 
	id="f1_1f"
	transform="scale(0.001,-0.001)" />

	<path d="M484.1,129.1c0,0,167.9,0,167.9,278.5c0,0,0,271,-166.4,271c0,0,-83.5,0,-127.9,-73c0,0,-44.4,-73,-44.4,-204c0,0,0,-130.3,44.4,-201.4c0,0,44.4,-71.1,126.4,-71.1ZM106.7,-316.7l0,938.6c0,0,0,114.1,-6,185.7l203.6,0c0,0,3.8,-13.4,6.4,-53.1c0,0,2.6,-39.7,2.6,-78.7l3,0c0,0,70.9,148.5,258.1,148.5c0,0,141,0,218.6,-108.5c0,0,77.6,-108.5,77.6,-308.4c0,0,0,-202.1,-81,-312.1c0,0,-80.9,-109.9,-228.6,-109.9c0,0,-85.1,0,-148.1,36.9c0,0,-63.1,36.9,-96.6,106.3l-4.5,0c0,0,4.5,-22.4,4.5,-135.7l0,-309.6Z" 
	id="f1_2c"
	transform="scale(0.001,-0.001)" />

	<path d="M106.7,0l0,618c0,0,0,66.5,-1.9,110.9c0,0,-1.9,44.4,-4.1,78.7l199.9,0c0,0,2.3,-13.5,6,-82.1c0,0,3.7,-68.7,3.7,-91.2l3,0c0,0,30.6,85.1,54.5,119.8c0,0,23.8,34.6,56.7,51.4c0,0,32.8,16.8,82,16.8c0,0,40.3,0,64.9,-11.2l0,-175c0,0,-50.7,11.2,-89.5,11.2c0,0,-78.3,0,-122,-63.4c0,0,-43.6,-63.4,-43.6,-187.9l0,-396Z" 
	id="f1_2e"
	transform="scale(0.001,-0.001)" />

	<path d="M360.3,132c0,0,49.3,0,89.9,26.8c0,0,40.7,26.8,63.8,74.1c0,0,23.1,47.3,23.1,100.2l0,40.9L429.7,372.5c0,0,-73.1,-2.9,-103.7,-16c0,0,-30.6,-13,-46.6,-39.8c0,0,-16.1,-26.8,-16.1,-71.5c0,0,0,-57.3,26.5,-85.3c0,0,26.5,-27.9,70.5,-27.9ZM293.2,-14.6c0,0,-117.2,0,-182.8,63.7c0,0,-65.6,63.9,-65.6,179.6c0,0,0,125.4,81.6,191c0,0,81.7,65.7,236.9,67.2l173.8,3l0,40.9c0,0,0,79,-27.6,117.3c0,0,-27.6,38.3,-90.3,38.3c0,0,-58.1,0,-85.4,-26.4c0,0,-27.2,-26.5,-33.9,-87.6L81.3,582.8c0,0,20.2,117.9,107.8,178.7c0,0,87.7,60.8,239.1,60.8c0,0,152.9,0,235.7,-75.3c0,0,82.8,-75.3,82.8,-213.9l0,-293.8c0,0,0,-67.8,15.3,-93.5c0,0,15.3,-25.7,51.1,-25.7c0,0,23.9,0,46.3,4.4l0,-113.7c0,0,-18.7,-4.5,-33.6,-8.3c0,0,-14.9,-3.6,-29.8,-5.9c0,0,-15,-2.2,-31.7,-3.7c0,0,-16.8,-1.5,-39.2,-1.5c0,0,-79.1,0,-116.7,38.7c0,0,-37.7,38.8,-45.2,114.1l-4.5,0c0,0,-88,-158.8,-265.5,-158.8Z" 
	id="f1_1x"
	transform="scale(0.001,-0.001)" />

	<path d="M313.3,-13.6c0,0,-92.5,0,-142.5,50.3c0,0,-50,50.4,-50,152.7l0,476.5l-102.1,0l0,141.7l112.6,0l65.6,189.7l131.3,0l0,-189.7l153,0l0,-141.7l-153,0l0,-420.6c0,0,0,-59.1,22.4,-87.2c0,0,22.4,-28,69.4,-28c0,0,24.6,0,70.1,10.4l0,-129c0,0,-77.6,-25.1,-176.8,-25.1Z" 
	id="f1_2g"
	transform="scale(0.001,-0.001)" />

	<path d="M106.7,0l0,807.6l209.6,0L316.3,0Zm0,952.4l0,154.4l209.6,0l0,-154.4Z" 
	id="f1_25"
	transform="scale(0.001,-0.001)" />

	<path d="M461,129.1c0,0,193.2,0,193.2,275.9c0,0,0,143.9,-47,208.7c0,0,-47,64.9,-136.5,64.9c0,0,-190.9,0,-190.9,-273.6c0,0,0,-135,46.6,-205.5c0,0,46.6,-70.4,134.6,-70.4Zm2.3,-143.7c0,0,-188.8,0,-296.2,111.8c0,0,-107.4,111.9,-107.4,307.4c0,0,0,194.7,107.4,306.2c0,0,107.4,111.5,300.6,111.5c0,0,197.7,0,301.8,-107.8c0,0,104.1,-107.8,104.1,-309.9c0,0,0,-196.2,-109,-307.7c0,0,-108.9,-111.5,-301.3,-111.5Z" 
	id="f1_2b"
	transform="scale(0.001,-0.001)" />

	<path d="M106.7,0l0,627c0,0,0,64.9,-1.9,106.4c0,0,-1.9,41.4,-4.1,74.2l199.9,0c0,0,2.3,-14.2,6,-76.1c0,0,3.7,-62,3.7,-85.2l3,0c0,0,42.5,92.5,106.7,134.2c0,0,64.1,41.8,152.9,41.8c0,0,128.3,0,196.9,-79c0,0,68.7,-79,68.7,-231.1L838.5,0L629.6,0l0,452.5c0,0,0,212.4,-144,212.4c0,0,-76,0,-122.7,-65.2c0,0,-46.6,-65.3,-46.6,-167.4L316.3,0Z" 
	id="f1_2a"
	transform="scale(0.001,-0.001)" />

	<path d="M452.8,84.1c0,0,101.5,0,146.6,75c0,0,45.1,75,45.1,243.8c0,0,0,169.5,-44.7,242.6c0,0,-44.8,73.2,-145.5,73.2c0,0,-113.4,0,-165.2,-77.7c0,0,-51.9,-77.6,-51.9,-246.3c0,0,0,-159.1,50.7,-234.8c0,0,50.8,-75.8,164.9,-75.8Zm35.8,-98.7c0,0,-91.7,0,-152.5,33.1c0,0,-60.8,33.2,-98.9,107.1l-1.5,0c0,0,0,-23.2,-2.9,-70.7c0,0,-3,-47.4,-4.5,-54.9L98.5,0c0,0,4.4,40.3,4.4,166.3l0,940.5l134.3,0l0,-315.2c0,0,0,-48.4,-3,-114l3,0c0,0,37.3,77.6,98.9,111.1c0,0,61.5,33.6,152.5,33.6c0,0,152.9,0,224.9,-102.9c0,0,72,-103,72,-311.9c0,0,0,-422.1,-296.9,-422.1Z" 
	id="f0_1y"
	transform="scale(0.001,-0.001)" />

	<path d="M425.9,-14.6c0,0,-159.6,0,-254.7,71.9c0,0,-95.1,72,-113,213L196.9,283c0,0,26.9,-187.2,229.1,-187.2c0,0,101.4,0,159.2,50.1c0,0,57.8,50.1,57.8,148.8c0,0,0,86,-66,134.2c0,0,-66,48.3,-190.6,48.3l-76.1,0l0,116.3l73.1,0c0,0,110.4,0,171.2,48c0,0,60.8,48.1,60.8,133c0,0,0,84.2,-49.6,133c0,0,-49.6,48.8,-147.3,48.8c0,0,-88.8,0,-143.6,-45.5c0,0,-54.8,-45.5,-63.8,-128.3l-135,10.4c0,0,14.9,129.1,107,201.5c0,0,92.2,72.4,236.9,72.4c0,0,158.1,0,245.8,-73.5c0,0,87.6,-73.4,87.6,-204.6c0,0,0,-100.6,-56.3,-163.5c0,0,-56.3,-63,-163.7,-85.4l0,-3c0,0,117.8,-12.7,183.5,-79.1c0,0,65.6,-66.4,65.6,-167.1c0,0,0,-145.6,-92.5,-225.4c0,0,-92.5,-79.8,-264.1,-79.8Z" 
	id="f0_n"
	transform="scale(0.001,-0.001)" />

	<path d="M204.4,0L-4.4,807.6l196.9,0L325.2,190.2l10.5,55.3l18.6,87.3L481.2,807.6l224.5,0L829.5,333.2c0,0,10.5,-38.8,30.6,-142.5L881,289.2L997.4,807.6l193.9,0L979.5,0L757.9,0L629.6,492.7c0,0,-9,33.6,-35,165.7L555.8,491.2L426,0Z" 
	id="f1_2j"
	transform="scale(0.001,-0.001)" />

	<path d="M102.2,0l0,1051.1l251.4,0L818.3,235c0,0,-13.4,112.6,-13.4,205.1l0,611l195.5,0L1000.4,0L742.3,0L284.2,809.4c0,0,13.4,-117.9,13.4,-189.5L297.6,0Z" 
	id="f1_1e"
	transform="scale(0.001,-0.001)" />

	<path d="M446.1,129.1c0,0,82.8,0,128.3,72.6c0,0,45.5,72.6,45.5,206.7c0,0,0,130.4,-43.6,200.8c0,0,-43.7,70.4,-128.7,70.4c0,0,-84.3,0,-125.3,-68.2c0,0,-41.1,-68.2,-41.1,-208.2c0,0,0,-274.1,164.9,-274.1ZM357.3,-14.6c0,0,-141,0,-217.8,110c0,0,-76.8,110,-76.8,307.7c0,0,0,200.6,80.9,309.9c0,0,80.9,109.3,229.4,109.3c0,0,85.8,0,148.1,-35.8c0,0,62.3,-35.8,95.8,-106.7l1.5,0l-1.5,132.7l0,294.3l209.7,0l0,-930.8c0,0,0,-74.6,5.9,-176L629.6,0c0,0,-3,11.2,-7.1,56.4c0,0,-4.1,45.3,-4.1,75.2l-3,0c0,0,-67.8,-146.2,-258.1,-146.2Z" 
	id="f1_20"
	transform="scale(0.001,-0.001)" />

	<path d="M508.8,-14.6c0,0,-202.2,0,-317.1,71.5c0,0,-114.9,71.6,-147.7,217L256.6,309c0,0,21.7,-83.3,84.3,-120.9c0,0,62.7,-37.5,173.8,-37.5c0,0,230.5,0,230.5,139.8c0,0,0,44.7,-26.4,73.8c0,0,-26.5,29.1,-74.6,48.5c0,0,-48.2,19.4,-184.7,47c0,0,-117.8,27.6,-164.1,44.3c0,0,-46.2,16.8,-83.5,39.6c0,0,-37.3,22.7,-63.4,54.8c0,0,-26.2,32.1,-40.7,75.3c0,0,-14.5,43.3,-14.5,99.2c0,0,0,142.5,107,218.2c0,0,107,75.7,311.4,75.7c0,0,195.5,0,293.6,-61.2c0,0,98.1,-61.2,126.4,-202.1L718.4,774.4c0,0,-16.4,68.1,-66.8,102.5c0,0,-50.3,34.4,-144.3,34.4c0,0,-200,0,-200,-125.7c0,0,0,-41.1,21.3,-67.1c0,0,21.3,-26.1,63,-44.4c0,0,41.8,-18.3,169.4,-45.9c0,0,151.4,-32,216.7,-59.3c0,0,65.3,-27.2,103.3,-63.4c0,0,38.1,-36.1,58.2,-86.5c0,0,20.1,-50.3,20.1,-116c0,0,0,-154.3,-114.5,-236c0,0,-114.5,-81.6,-336,-81.6Z" 
	id="f1_1j"
	transform="scale(0.001,-0.001)" />

	<path d="M443.1,-14.6c0,0,-183.5,0,-283.5,109.2c0,0,-99.9,109.3,-99.9,304.7c0,0,0,200,100.7,311.5c0,0,100.7,111.5,285.7,111.5c0,0,142.5,0,235.7,-71.6c0,0,93.3,-71.6,117.2,-197.6L587.8,542.7c0,0,-8.9,61.9,-44.7,98.9c0,0,-35.8,37,-101.5,37c0,0,-161.8,0,-161.8,-270.7c0,0,0,-278.8,164.8,-278.8c0,0,59.7,0,100,37.6c0,0,40.2,37.5,50,112L804.9,269c0,0,-11.2,-82.9,-59.3,-147.8c0,0,-48.1,-65,-126.4,-100.4c0,0,-78.4,-35.4,-176.1,-35.4Z" 
	id="f1_1z"
	transform="scale(0.001,-0.001)" />

	<path d="M629.6,0l0,452.2c0,0,0,212.7,-144,212.7c0,0,-76,0,-122.7,-65.3c0,0,-46.6,-65.2,-46.6,-167.5l0,-431.9l-209.6,0l0,1106.6l209.6,0l0,-301.8c0,0,0,-81.2,-6,-158.7l3,0c0,0,42.5,92.5,106.7,134.2c0,0,64.1,41.8,152.9,41.8c0,0,128.3,0,196.9,-79.1c0,0,68.7,-79.1,68.7,-231.3L838.5,0Z" 
	id="f1_24"
	transform="scale(0.001,-0.001)" />

	<path d="M485.6,129.1c0,0,166.4,0,166.4,277.9c0,0,0,137,-40.3,203.3c0,0,-40.3,66.3,-124.6,66.3c0,0,-85,0,-129.4,-71.1c0,0,-44.4,-71.2,-44.4,-205.3c0,0,0,-128.1,43.7,-199.6c0,0,43.6,-71.5,128.6,-71.5ZM561,-14.6c0,0,-85.8,0,-148.5,37.2c0,0,-62.7,37.3,-96.2,107.5l-1.5,0c0,0,0,-26.2,-3.4,-71.8c0,0,-3.3,-45.6,-7.1,-58.3L100.7,0c0,0,6,69.4,6,184.2l0,922.6l209.6,0l0,-308.5l-3,-131.2l3,0c0,0,70.9,155.2,258.1,155.2c0,0,143.2,0,219.7,-108.5c0,0,76.5,-108.6,76.5,-307c0,0,0,-199.9,-80.2,-310.7c0,0,-80.2,-110.7,-229.4,-110.7Z" 
	id="f1_1y"
	transform="scale(0.001,-0.001)" />

	<path d="M360.3,-14.6c0,0,-128.3,0,-196.9,78.7c0,0,-68.7,78.7,-68.7,230.9l0,512.6l209.6,0l0,-452.4c0,0,0,-212.4,143.3,-212.4c0,0,76.1,0,122.7,65.2c0,0,46.6,65.2,46.6,167.3l0,432.3l209.7,0l0,-627c0,0,0,-103,5.9,-180.6L632.6,0c0,0,-9,107.6,-9,160.6l-3.7,0c0,0,-41.8,-91.7,-106.3,-133.5c0,0,-64.5,-41.7,-153.3,-41.7Z" 
	id="f1_2h"
	transform="scale(0.001,-0.001)" />

	<path d="M106.7,0l0,1106.8l209.6,0L316.3,0Z" 
	id="f1_28"
	transform="scale(0.001,-0.001)" />

	<path d="M144,0l0,201.4l214.8,0L358.8,0Zm23.8,317.8L144,1051.1l219.3,0L339.4,317.8Z" 
	id="f1_5"
	transform="scale(0.001,-0.001)" />

	<path d="M610.2,569.1c0,0,92.5,0,140.3,42c0,0,47.7,41.9,47.7,117.7c0,0,0,152.2,-193.9,152.2l-282,0l0,-311.9ZM102.2,0l0,1051.1l525.2,0c0,0,188,0,290.2,-81c0,0,102.2,-81,102.2,-232.5c0,0,0,-110.5,-62.7,-190.7c0,0,-62.7,-80.3,-169.3,-105.6L1072,0L824.3,0L580.4,398.9l-258.1,0L322.3,0Z" 
	id="f1_1i"
	transform="scale(0.001,-0.001)" />

	<path d="M211.1,-316.7c0,0,-75.3,0,-132,9.7l0,148.8c0,0,39.5,-6,72.3,-6c0,0,44.8,0,74.3,14.2c0,0,29.4,14.1,52.9,46.9c0,0,23.5,32.8,52.6,110.9L11.9,807.6l221.6,0L360.3,428.9c0,0,29.8,-81.4,75.4,-249.5l18.6,71l48.5,175.5L622.2,807.6l219.3,0L522.2,-42.8c0,0,-64.2,-154.8,-133.2,-214.3c0,0,-69,-59.6,-177.9,-59.6Z" 
	id="f1_2l"
	transform="scale(0.001,-0.001)" />

	<path d="M102.9,-316.7c0,0,-74.6,0,-126.7,6.7l0,147.8l38,-2.9c0,0,53.7,0,73.4,23.5c0,0,19.8,23.5,19.8,97.3l0,851.9l209.6,0l0,-902.7c0,0,0,-106.7,-54,-164.1c0,0,-54.1,-57.5,-160.1,-57.5Zm4.5,1269.1l0,154.4l209.6,0l0,-154.4Z" 
	id="f1_26"
	transform="scale(0.001,-0.001)" />

	<path d="M593.1,-14.6c0,0,-253.7,0,-392,143.5c0,0,-138.4,143.6,-138.4,401.6c0,0,0,258.8,133.5,397.5c0,0,133.5,138.8,387.2,138.8c0,0,185,0,301.3,-74.2c0,0,116.4,-74.2,163.4,-218.1L854.2,721.6c0,0,-24.7,79,-96.7,125.5c0,0,-71.9,46.6,-169.7,46.6c0,0,-149.2,0,-226.4,-92.5c0,0,-77.2,-92.4,-77.2,-270.7c0,0,0,-181.2,79.5,-276.6c0,0,79.4,-95.5,229.4,-95.5c0,0,199.1,0,276.7,199.5l191.7,-72.3c0,0,-61.9,-152,-181.6,-226.1c0,0,-119.7,-74.1,-286.8,-74.1Z" 
	id="f1_13"
	transform="scale(0.001,-0.001)" />

	<path d="M326.7,0l0,201.4l215.6,0L542.3,0Zm6,317.8c0,0,4.5,76.1,42.9,135.7c0,0,38.4,59.7,113,111.9c0,0,79.8,55.2,112.7,97.4c0,0,32.8,42.1,32.8,93.6c0,0,0,65.9,-42.9,104c0,0,-42.9,38.2,-122,38.2c0,0,-75.3,0,-126.4,-44c0,0,-51.1,-44,-60.1,-116.4l-212.6,9c0,0,20.2,151.2,124.6,235.4c0,0,104.4,84.2,271.5,84.2c0,0,176.8,0,277.9,-80.2c0,0,101.1,-80.2,101.1,-221.2c0,0,0,-72.4,-32.5,-129.8c0,0,-32.4,-57.5,-121.2,-120.9l-56.7,-41c0,0,-50.7,-36.6,-75.7,-73.9c0,0,-25,-37.3,-27.2,-82Z" 
	id="f1_z"
	transform="scale(0.001,-0.001)" />

	<path d="M308.1,0L18.6,1093.2l148.4,0L333.2,376.7c0,0,26.5,-112.7,46.7,-223.8c0,0,41.9,175.3,49.3,202.1l208.4,738.2l174.6,0L968.3,540.1c0,0,58.9,-205.9,85.3,-387.2c0,0,21.7,103.5,55,237.8l170.6,702.5l145.4,0L1126.2,0L985.1,0l-229,833.6c0,0,-29.6,104.3,-35,127.6c0,0,-17.6,-75,-32.3,-128L456.7,0Z" 
	id="f2_1n"
	transform="scale(0.001,-0.001)" />

	<path d="M644.4,472.3c0,0,-9,99.6,-50.8,149.5c0,0,-64.3,77.3,-166.6,77.3c0,0,-92.6,0,-155.7,-61.7c0,0,-63.2,-61.8,-69.9,-165.1ZM433.2,-17.5c0,0,-173.8,0,-275.6,106.8c0,0,-101.9,107,-101.9,300c0,0,0,199.7,103,310c0,0,102.9,110.3,267.1,110.3c0,0,158.9,0,259.6,-108c0,0,100.7,-108.1,100.7,-304.1c0,0,0,-11.9,-0.7,-35.7l-591.8,0c0,0,7.5,-130.4,74,-199.6c0,0,66.5,-69.3,166,-69.3c0,0,74,0,126.3,38.9c0,0,52.3,39,83,124.4L781.7,238.6c0,0,-32.9,-121.8,-121.7,-189c0,0,-88.7,-67.1,-226.8,-67.1Z" 
	id="f2_21"
	transform="scale(0.001,-0.001)" />

	<path d="M114.4,747L81.2,800c0,0,40.1,16.4,59.8,51.9c0,0,19.6,35.5,21.9,97.5l-70,0l0,155.5l143.7,0l0,-123.2c0,0,0,-99.8,-23,-143.8c0,0,-31.8,-60.3,-99.2,-90.9Z" 
	id="f2_53"
	transform="scale(0.001,-0.001)" />

	<path d="M98.8,0l0,792L219,792l0,-120.5c0,0,46.4,84.4,85.6,111.2c0,0,39.3,26.9,86.4,26.9c0,0,68,0,138.3,-43l-47,-124.3c0,0,-49.1,28.5,-98.3,28.5c0,0,-43.9,0,-78.9,-26.5c0,0,-35,-26.4,-49.9,-73.4c0,0,-22.5,-71.5,-22.5,-156.5L232.7,0Z" 
	id="f2_2e"
	transform="scale(0.001,-0.001)" />

	<path d="M100.7,0l0,1093.2l134,0l0,-392.3c0,0,94,108.7,237.4,108.7c0,0,88,0,153,-34.7c0,0,65,-34.6,92.9,-95.8c0,0,28,-61.1,28,-177.4L746,0L612.1,0l0,501.8c0,0,0,100.7,-43.7,146.6c0,0,-43.7,45.8,-123.7,45.8c0,0,-59.8,0,-112.5,-30.9c0,0,-52.7,-31,-75.1,-83.9c0,0,-22.4,-52.9,-22.4,-146.2L234.7,0Z" 
	id="f2_24"
	transform="scale(0.001,-0.001)" />

	<path d="M101.7,0l0,792l133.9,0l0,-792Zm0,938.7l0,154.5l133.9,0l0,-154.5Z" 
	id="f2_25"
	transform="scale(0.001,-0.001)" />

	<path d="M100.7,0l0,792L221,792l0,-112.6c0,0,87.3,130.2,252.2,130.2c0,0,71.6,0,131.7,-25.7c0,0,60.1,-25.7,89.9,-67.5c0,0,29.9,-41.7,41.8,-99.1c0,0,7.5,-37.3,7.5,-130.5L744.1,0l-134,0l0,481.6c0,0,0,82,-15.6,122.6c0,0,-15.7,40.6,-55.6,64.8c0,0,-40,24.3,-93.7,24.3c0,0,-85.9,0,-148.2,-54.5c0,0,-62.3,-54.4,-62.3,-206.5L234.7,0Z" 
	id="f2_2a"
	transform="scale(0.001,-0.001)" />

	<path d="M404.3,111.5c0,0,92.3,0,154.9,71.1c0,0,62.5,71.1,62.5,222.9c0,0,0,145.2,-64.4,218.9c0,0,-64.4,73.7,-155.3,73.7c0,0,-89.3,0,-151.9,-72.6c0,0,-62.5,-72.6,-62.5,-215.5c0,0,0,-155.6,61.8,-227.1c0,0,61.8,-71.4,154.9,-71.4ZM389.6,-321.6c0,0,-141.8,0,-229.2,63.9c0,0,-87.3,63.8,-84.3,192.3l131,-19.5c0,0,8.2,-60.4,45.5,-88c0,0,49.9,-37.2,136.3,-37.2c0,0,93.2,0,143.8,37.3c0,0,50.7,37.2,68.6,104.3c0,0,10.4,41,9.7,172.1C611,103.6,523,0,391.8,0c0,0,-163.2,0,-252.7,117.8c0,0,-89.4,117.8,-89.4,282.5c0,0,0,113.3,41,209.1c0,0,41,95.8,118.9,148c0,0,77.9,52.2,183,52.2c0,0,140.1,0,231.1,-113.4l0,95.8l124.1,0l0,-684.8c0,0,0,-184.8,-37.7,-262.1c0,0,-37.7,-77.2,-119.4,-121.9c0,0,-81.7,-44.8,-201.1,-44.8Z" 
	id="f2_23"
	transform="scale(0.001,-0.001)" />

	<path d="M390.9,-14.6c0,0,-163.4,0,-251,70.9c0,0,-87.7,71,-116.8,229.3l218.6,32.2c0,0,13.4,-81.7,50,-121c0,0,36.5,-39.4,100.7,-39.4c0,0,65.6,0,99.6,44.1c0,0,33.9,44,33.9,126.1l0,551.4l-209.6,0l0,172.1l428.9,0l0,-718.2c0,0,0,-164.1,-93.2,-255.8c0,0,-93.3,-91.7,-261.1,-91.7Z" 
	id="f1_1a"
	transform="scale(0.001,-0.001)" />

	<path d="M102.2,0l0,1051.1l826.6,0l0,-170.1l-606.5,0l0,-264l561,0l0,-170.1l-561,0l0,-276.8l637,0L959.3,0Z" 
	id="f1_15"
	transform="scale(0.001,-0.001)" />

	<path d="M426,-14.6c0,0,-166.4,0,-254.8,52.4c0,0,-88.4,52.5,-117.5,163.5L238,228.8c0,0,15.6,-57.1,54.1,-80.9c0,0,38.4,-23.7,133.9,-23.7c0,0,88,0,128.3,22.3c0,0,40.3,22.3,40.3,69.9c0,0,0,38.7,-32.5,61.5c0,0,-32.4,22.7,-110,38.4c0,0,-177.6,35,-239.5,65.2c0,0,-61.9,30.1,-94.4,78.2c0,0,-32.4,48.1,-32.4,118.2c0,0,0,115.5,89.1,179.9c0,0,89.2,64.5,252.6,64.5c0,0,143.9,0,231.6,-56c0,0,87.6,-56.1,109.3,-162.2L582.6,584.7c0,0,-8.9,49.8,-44,74.3c0,0,-35.1,24.5,-111.1,24.5c0,0,-74.6,0,-111.9,-19.1c0,0,-37.3,-19.2,-37.3,-64.2c0,0,0,-35,28.7,-55.5c0,0,28.7,-20.5,96.6,-33.9c0,0,94.7,-19.4,168.2,-39.9c0,0,73.5,-20.5,117.9,-48.8c0,0,44.4,-28.3,70.8,-72.7c0,0,26.5,-44.3,26.5,-113.6c0,0,0,-117.1,-95.8,-183.7c0,0,-95.9,-66.7,-265.2,-66.7Z" 
	id="f1_2f"
	transform="scale(0.001,-0.001)" />

	<path d="M139.5,0l0,154.5l145.5,0L285,0Zm0,653.2l0,154.4l145.5,0l0,-154.4Z" 
	id="f0_u"
	transform="scale(0.001,-0.001)" />

	<path d="M125.3,0l0,1051.1l142.5,0l0,-444.9l568.4,0l0,444.9l142.5,0L978.7,0L836.2,0l0,486.9l-568.4,0L267.8,0Z" 
	id="f0_18"
	transform="scale(0.001,-0.001)" />

	<path d="M223.8,0L-2.1,807.6l132.6,0L267.1,259.3c0,0,5.2,-17.9,32,-147.7l12.7,55.2L480.4,807.6l144,0l141,-554.2L799.7,111.6l23.1,103.7L975.7,807.6l131.3,0L875.8,0.5l-155.9,0l-141,570.7L552,697.2c0,0,-6.7,-33.6,-20.9,-96.6C531.1,600.6,517,537.5,379,0Z" 
	id="f0_2j"
	transform="scale(0.001,-0.001)" />

	<path d="M102.9,0l0,1106.8l134.3,0l0,-691L591.6,807.6l157.4,0L421.5,460.5L766.1,0L608.7,0l-273,368.7L237.2,287.4L237.2,0Z" 
	id="f0_27"
	transform="scale(0.001,-0.001)" />

	<path d="M545.3,-14.6c0,0,-129,0,-225.3,46.9c0,0,-96.2,47,-149.2,136.5c0,0,-52.9,89.5,-52.9,213.3l0,669l142.4,0l0,-657.2c0,0,0,-144,73.2,-218.6c0,0,73.1,-74.6,211.1,-74.6c0,0,141.7,0,220.4,77.2c0,0,78.7,77.2,78.7,225.7l0,647.5l141.7,0l0,-655.6c0,0,0,-127.5,-54,-220c0,0,-54.1,-92.5,-153,-141.3c0,0,-98.8,-48.8,-233.1,-48.8Z" 
	id="f0_1l"
	transform="scale(0.001,-0.001)" />

	<path d="M125.3,0l0,1051.1l142.5,0l0,-526.7l506.5,526.7l167.9,0L494.6,594.6L1001.9,0L825.1,0l-420,507.3L267.8,402.8L267.8,0Z" 
	id="f0_1b"
	transform="scale(0.001,-0.001)" />

	<path d="M412.5,-14.6c0,0,-169.3,0,-258.5,107c0,0,-89.1,107,-89.1,312.2c0,0,0,203.6,89.5,310.7c0,0,89.5,107,256.6,107c0,0,123.9,0,205.6,-64.1c0,0,81.6,-64.2,102.5,-176.8L581.1,571c0,0,-10.4,66.9,-52.9,106.3c0,0,-42.6,39.4,-120.9,39.4c0,0,-106.7,0,-154.4,-70.8c0,0,-47.7,-70.9,-47.7,-238.7c0,0,0,-161.1,50.7,-238.7c0,0,50.7,-77.6,152.9,-77.6c0,0,71.6,0,119.7,38.9c0,0,48.1,38.8,59.3,119.5l135.8,-8.9c0,0,-15.7,-116.4,-99.2,-185.7c0,0,-83.6,-69.3,-211.9,-69.3Z" 
	id="f0_1z"
	transform="scale(0.001,-0.001)" />


</defs>

<!-- Any embedded fonts defined here -->
<style type="text/css" ><![CDATA[

@font-face {
	font-family: ArialMT_6;
	src: url("fonts/ArialMT_6.woff") format("woff");
}

@font-face {
	font-family: Arial-BoldMT_9;
	src: url("fonts/Arial-BoldMT_9.woff") format("woff");
}

@font-face {
	font-family: ArialMT_p;
	src: url("fonts/ArialMT_p.woff") format("woff");
}

]]></style>

</svg>
